<svg version="1.1" id="Layer_1" xmlns="http://www.w3.org/2000/svg" xmlns:xlink="http://www.w3.org/1999/xlink" x="0px" y="0px"
	 width="100%" viewBox="0 0 930 159" enable-background="new 0 0 930 159" xml:space="preserve">
<path fill="#FFFFFF" opacity="1.000000" stroke="none" 
	d="
M44.000000,160.000000 
	C29.669662,160.000000 15.339326,160.000000 1.006741,160.000000 
	C1.004494,107.014076 1.004494,54.028149 1.004494,1.021112 
	C310.921112,1.021112 620.842224,1.021112 930.881714,1.021112 
	C930.881714,53.909809 930.881714,106.819969 930.881714,160.000000 
	C674.643433,160.000000 418.286713,160.000000 161.562561,159.648285 
	C165.527878,156.859406 169.861725,154.424164 174.193207,151.984726 
	C181.981796,147.598297 184.021561,141.160492 180.012512,133.254059 
	C177.908020,129.103668 175.435638,125.129684 173.517899,120.899887 
	C172.781235,119.275070 172.578751,117.003227 173.070587,115.296417 
	C175.187775,107.949203 177.653214,100.702339 180.126251,93.000259 
	C181.473587,93.000259 183.449738,92.997566 185.425888,93.000832 
	C189.214584,93.007088 192.118057,90.799660 192.507263,87.548317 
	C192.791122,85.177010 191.080124,81.974815 189.253860,80.146431 
	C187.988632,78.879738 184.933899,79.573494 182.830063,78.910889 
	C181.417450,78.465981 179.568039,77.441269 179.118027,76.229012 
	C176.398636,68.903786 175.036469,60.899200 171.352661,54.139709 
	C159.262756,31.955679 140.291077,19.763023 114.816193,19.120182 
	C101.103699,18.774157 87.314064,19.126068 73.654892,20.287769 
	C68.784325,20.702005 65.009956,19.897467 60.800831,18.081457 
	C55.830849,15.937179 50.591446,14.378393 45.396210,12.805723 
	C39.819847,11.117682 36.049133,13.258244 35.047131,18.832542 
	C33.533688,27.252039 32.747421,35.823666 30.822535,44.138596 
	C29.884914,48.188831 26.328377,51.611275 25.273479,55.660759 
	C23.553461,62.263470 20.170481,65.076981 13.211853,65.198257 
	C7.926757,65.290367 4.467614,67.595535 4.882900,74.140663 
	C5.377450,81.935013 5.122788,89.787361 4.955725,97.609528 
	C4.845497,102.770599 6.818314,106.031776 12.053628,107.030830 
	C18.846935,108.327179 23.929184,110.908264 26.590599,118.450294 
	C28.048548,122.581886 28.705399,124.776146 26.242067,128.683197 
	C19.069958,140.058807 22.022709,146.038879 29.627001,151.768127 
	C34.001934,155.064316 39.182228,157.291580 44.000000,160.000000 
M833.568787,113.000000 
	C837.994934,113.000000 842.421143,113.000000 847.000000,113.000000 
	C847.000000,98.722229 847.169006,85.067207 846.900696,71.420776 
	C846.816162,67.119774 845.987366,62.711655 844.731995,58.585987 
	C843.135376,53.338543 839.765076,49.063541 834.399353,47.196537 
	C821.198303,42.603180 809.157288,45.244576 798.243286,53.782978 
	C793.292542,48.125103 786.950806,45.491936 779.782288,45.061546 
	C772.476013,44.622894 766.181213,47.874016 759.754456,51.929539 
	C759.754456,49.673008 759.754456,47.922760 759.754456,46.295429 
	C753.022217,46.295429 746.607056,46.295429 740.299744,46.295429 
	C740.299744,68.664627 740.299744,90.737183 740.299744,112.695816 
	C747.011108,112.695816 753.419373,112.695816 760.000000,112.695816 
	C760.000000,99.743095 759.936218,87.093254 760.056396,74.445137 
	C760.079041,72.057228 760.497437,69.553108 761.317078,67.316597 
	C763.306519,61.888481 769.203857,59.408962 777.263062,61.112942 
	C782.351379,62.188786 783.006897,66.676941 783.003357,71.143600 
	C782.993713,83.310226 783.000000,95.476868 783.000000,107.643501 
	C783.000000,109.394447 783.000000,111.145393 783.000000,112.655891 
	C790.426331,112.655891 797.169983,112.655891 804.000000,112.655891 
	C804.000000,98.818596 803.979858,85.325111 804.008972,71.831741 
	C804.022339,65.625427 808.605591,61.011711 814.657166,61.000004 
	C823.526855,60.982845 826.932739,63.845753 826.983582,71.583031 
	C827.050476,81.749229 827.000000,91.916199 827.000000,102.082840 
	C827.000000,105.675728 827.000000,109.268623 827.000000,113.000000 
	C829.289429,113.000000 830.942200,113.000000 833.568787,113.000000 
M483.000000,49.651703 
	C483.000000,79.300026 482.999664,108.948341 483.000305,138.596664 
	C483.000427,144.998718 483.002045,144.998886 489.641205,144.999924 
	C492.472778,145.000381 495.333801,144.741104 498.129272,145.058914 
	C502.654083,145.573303 504.303680,144.124207 504.114014,139.314056 
	C503.731323,129.608353 504.000000,119.876953 504.000000,109.869858 
	C522.454041,118.591965 537.642944,112.125046 546.320190,99.163963 
	C554.102844,87.539169 551.963928,66.074440 542.161865,55.623878 
	C532.614502,45.444859 515.000732,42.393795 504.225800,49.606335 
	C504.030151,48.398251 503.840973,47.230125 503.641785,46.000244 
	C497.476746,46.000244 491.647003,45.877056 485.832611,46.120544 
	C484.854462,46.161510 483.942688,47.787258 483.000000,49.651703 
M905.878601,112.645889 
	C911.932190,110.488869 917.322021,107.357170 920.997803,101.898270 
	C928.543884,90.691467 930.483398,78.960899 925.121216,66.091873 
	C921.302673,56.927402 914.767395,50.512920 905.907349,47.220230 
	C897.162048,43.970150 887.860413,42.770851 880.178284,51.149883 
	C880.023254,49.082722 879.916138,47.654907 879.810181,46.242596 
	C873.150879,46.242596 866.726624,46.242596 860.227234,46.242596 
	C860.227234,79.211037 860.227234,111.936424 860.227234,144.772293 
	C866.859131,144.772293 873.261841,144.772293 880.038452,144.772293 
	C880.038452,132.862167 880.038452,121.172546 880.038452,109.206085 
	C888.134705,114.246117 896.416626,115.019585 905.878601,112.645889 
M365.037048,96.336037 
	C367.236603,101.802910 369.436127,107.269775 371.741608,113.000000 
	C374.497528,113.000000 377.507690,112.765923 380.465088,113.060829 
	C383.953186,113.408653 385.547607,112.197975 386.790497,108.776146 
	C392.471527,93.135506 398.570740,77.647278 404.428772,62.070103 
	C406.344788,56.975098 407.985962,51.776711 409.967224,46.000523 
	C403.129700,46.000523 397.807404,45.849987 392.505829,46.114891 
	C391.301483,46.175064 389.469757,47.447285 389.111664,48.547310 
	C385.519836,59.581486 382.175568,70.696243 378.761566,81.788315 
	C378.445557,81.821030 378.129578,81.853745 377.813568,81.886459 
	C374.077026,69.923180 370.340454,57.959908 366.605042,46.000202 
	C362.416168,46.000202 358.576691,45.813446 354.773590,46.103378 
	C353.474915,46.202377 351.551483,47.228554 351.149017,48.296635 
	C349.798218,51.881519 349.117340,55.711460 347.974396,59.383579 
	C345.639954,66.883583 343.171661,74.341927 340.403381,82.917656 
	C336.273529,69.868462 332.523834,58.020386 328.774536,46.173622 
	C322.101624,46.173622 315.639038,46.173622 308.351807,46.173622 
	C316.872070,68.675079 325.233093,90.755905 333.611206,112.881912 
	C334.108490,112.921196 334.599487,112.988480 335.091309,112.994659 
	C346.900024,113.143211 346.814056,113.109627 351.062103,101.833977 
	C353.574310,95.165878 356.409851,88.619591 359.435974,81.194069 
	C361.531281,86.592453 363.265747,91.061287 365.037048,96.336037 
M428.678558,47.996819 
	C424.310486,50.914085 419.942413,53.831356 414.881653,57.211262 
	C420.766754,60.663345 425.453613,63.412556 430.074219,66.122887 
	C434.871277,61.897945 442.555237,60.460922 446.957153,63.008751 
	C449.495758,64.478096 451.807190,66.266350 450.659882,70.000000 
	C446.419250,70.000000 442.434021,69.999222 438.448761,70.000137 
	C421.120239,70.004120 410.775024,80.284401 411.000031,97.275917 
	C411.072052,102.714874 415.947205,108.867111 420.993011,111.092239 
	C431.032990,115.519730 440.731995,115.020973 450.278351,109.896080 
	C451.825012,113.555717 456.631256,114.146057 470.996765,112.565727 
	C470.996765,96.019028 471.193573,79.420761 470.808960,62.835979 
	C470.742462,59.969414 468.531708,56.939266 466.760529,54.363487 
	C460.067719,44.630230 441.055573,44.007317 428.678558,47.996819 
M667.230713,99.752945 
	C670.360229,112.384827 689.568054,119.506294 706.821289,109.322426 
	C706.968140,110.574211 707.104553,111.736198 707.215393,112.680954 
	C714.037292,112.680954 720.448914,112.680954 727.000000,112.680954 
	C727.000000,97.055710 727.068359,81.748642 726.971558,66.442635 
	C726.922119,58.619747 723.076172,53.045067 716.405334,49.045113 
	C710.224060,45.338692 703.514893,46.176174 696.857483,45.970860 
	C686.406311,45.648548 677.991638,49.649681 671.148193,57.439507 
	C676.215515,60.378468 681.159058,63.245625 686.271240,66.210617 
	C690.568298,60.594357 696.467590,61.180927 701.981689,62.788101 
	C704.309265,63.466515 705.903503,66.660881 708.030212,68.923416 
	C699.125793,70.061989 691.442444,70.538071 684.002319,72.142151 
	C676.955017,73.661530 671.025696,77.777695 668.739502,84.947128 
	C667.339905,89.336197 667.535522,94.233948 667.230713,99.752945 
M610.000000,95.246490 
	C610.000000,84.502647 606.310181,79.486633 595.725220,75.971657 
	C590.572205,74.260498 585.260742,72.940506 580.292053,70.811081 
	C578.740112,70.145958 578.074524,67.412415 577.003235,65.625710 
	C578.465515,64.750488 579.833984,63.386997 581.406433,63.084679 
	C588.163574,61.785522 592.801025,65.772202 596.536377,69.921623 
	C600.820679,65.582603 604.755310,61.597668 608.738586,57.563503 
	C600.677307,45.568447 579.337097,42.014996 567.345520,49.938297 
	C560.624756,54.378910 556.988403,60.464355 558.109009,68.483299 
	C559.081604,75.442894 562.814636,80.747887 569.943481,83.029160 
	C576.011536,84.971001 582.107910,86.849419 588.069946,89.081154 
	C589.610596,89.657867 590.693909,91.456512 591.987244,92.693855 
	C590.541931,94.126068 589.195801,96.620041 587.630310,96.766335 
	C584.507507,97.058159 580.983643,96.694099 578.142944,95.434120 
	C574.704224,93.908913 571.801392,91.175636 569.234192,89.365364 
	C564.880737,93.690407 560.704285,97.839561 556.523865,101.992691 
	C565.514526,111.669365 582.298157,118.440895 597.468384,111.094208 
	C603.909729,107.974770 608.654236,103.484337 610.000000,95.246490 
M280.522400,63.000000 
	C285.270050,65.001854 290.017700,67.003708 294.573425,68.924644 
	C298.144043,65.340538 302.300140,61.168728 306.692017,56.760273 
	C296.443909,48.421959 285.714630,41.530083 271.229919,46.964474 
	C262.281403,50.321785 256.393799,57.465462 255.913422,65.143410 
	C255.302292,74.911316 262.068665,81.773811 271.469849,84.950546 
	C276.467041,86.639145 281.669800,87.716789 286.677704,89.377922 
	C287.980072,89.809906 289.783936,91.414528 289.763550,92.449158 
	C289.739746,93.658630 288.016968,95.801575 286.951904,95.851646 
	C282.928925,96.040771 278.632111,96.286919 274.906555,95.073013 
	C271.889374,94.089905 269.544861,91.042297 267.067230,89.043694 
	C262.729340,93.362808 258.518494,97.555466 254.221451,101.833931 
	C262.322998,109.659393 271.531158,114.969353 283.628113,114.078255 
	C292.962860,113.390633 300.380341,110.037865 305.659790,101.996498 
	C308.926880,97.020271 309.519562,86.641739 303.715179,82.380585 
	C299.760040,79.477013 295.320862,77.093452 290.817566,75.116440 
	C286.600952,73.265289 281.881866,72.560806 277.659760,70.719246 
	C276.054352,70.019020 275.217804,67.556053 274.030853,65.896492 
	C275.908813,64.930992 277.786774,63.965496 280.522400,63.000000 
M657.942505,62.268097 
	C657.942505,56.856159 657.942505,51.444225 657.942505,45.667191 
	C652.193665,45.667191 647.115295,45.667191 641.670776,45.667191 
	C641.670776,39.196377 641.670776,33.119827 641.670776,27.360153 
	C634.865051,27.360153 628.457031,27.360153 621.687378,27.360153 
	C621.687378,33.799541 621.687378,39.880264 621.687378,46.133804 
	C619.343567,46.133804 617.386475,46.133804 615.337402,46.133804 
	C615.337402,51.872238 615.337402,57.408680 615.337402,63.124275 
	C617.635742,63.124275 619.595398,63.124275 622.000000,63.124275 
	C622.000000,72.252403 621.555969,81.223846 622.094849,90.135834 
	C623.132263,107.291290 631.310120,115.748489 649.243652,113.778099 
	C652.159363,113.457741 657.220520,114.033958 657.857056,109.300827 
	C658.481567,104.656990 657.993103,99.863480 657.993103,94.252846 
	C656.527161,95.306702 655.942871,95.823898 655.275879,96.190956 
	C649.728516,99.243973 642.337402,96.105621 642.098450,90.213371 
	C641.736206,81.282417 642.003723,72.325920 642.003723,62.943474 
	C647.351074,62.943474 652.302612,62.943474 657.942505,62.268097 
z"/>
<path fill="#000000" opacity="1.000000" stroke="none" 
	d="
M44.437500,160.000000 
	C39.182228,157.291580 34.001934,155.064316 29.627001,151.768127 
	C22.022709,146.038879 19.069958,140.058807 26.242067,128.683197 
	C28.705399,124.776146 28.048548,122.581886 26.590599,118.450294 
	C23.929184,110.908264 18.846935,108.327179 12.053628,107.030830 
	C6.818314,106.031776 4.845497,102.770599 4.955725,97.609528 
	C5.122788,89.787361 5.377450,81.935013 4.882900,74.140663 
	C4.467614,67.595535 7.926757,65.290367 13.211853,65.198257 
	C20.170481,65.076981 23.553461,62.263470 25.273479,55.660759 
	C26.328377,51.611275 29.884914,48.188831 30.822535,44.138596 
	C32.747421,35.823666 33.533688,27.252039 35.047131,18.832542 
	C36.049133,13.258244 39.819847,11.117682 45.396210,12.805723 
	C50.591446,14.378393 55.830849,15.937179 60.800831,18.081457 
	C65.009956,19.897467 68.784325,20.702005 73.654892,20.287769 
	C87.314064,19.126068 101.103699,18.774157 114.816193,19.120182 
	C140.291077,19.763023 159.262756,31.955679 171.352661,54.139709 
	C175.036469,60.899200 176.398636,68.903786 179.118027,76.229012 
	C179.568039,77.441269 181.417450,78.465981 182.830063,78.910889 
	C184.933899,79.573494 187.988632,78.879738 189.253860,80.146431 
	C191.080124,81.974815 192.791122,85.177010 192.507263,87.548317 
	C192.118057,90.799660 189.214584,93.007088 185.425888,93.000832 
	C183.449738,92.997566 181.473587,93.000259 180.126251,93.000259 
	C177.653214,100.702339 175.187775,107.949203 173.070587,115.296417 
	C172.578751,117.003227 172.781235,119.275070 173.517899,120.899887 
	C175.435638,125.129684 177.908020,129.103668 180.012512,133.254059 
	C184.021561,141.160492 181.981796,147.598297 174.193207,151.984726 
	C169.861725,154.424164 165.527878,156.859406 161.097565,159.648285 
	C158.629440,160.000000 156.258896,160.000000 153.341034,159.643341 
	C145.844574,158.111954 144.598587,151.490707 141.017624,146.627670 
	C131.151581,151.372726 120.829666,153.586990 109.923210,153.023865 
	C94.723999,152.239044 79.312065,154.990097 64.328156,150.142319 
	C63.211308,149.780991 61.262737,151.149765 60.036251,152.132782 
	C56.922523,154.628372 53.999424,157.361801 51.000000,160.000000 
	C48.958332,160.000000 46.916668,160.000000 44.437500,160.000000 
M127.748947,79.626564 
	C123.338364,78.638847 120.075302,80.001091 118.956551,84.559937 
	C118.115753,87.986145 119.311676,90.897095 122.826515,92.193390 
	C126.249008,93.455635 129.583954,93.211990 131.410629,89.553207 
	C133.392639,85.583298 132.385193,82.206604 127.748947,79.626564 
M105.309853,84.171150 
	C103.943382,80.188469 100.910583,78.813499 97.099625,79.594521 
	C93.849220,80.260666 92.031387,82.613159 92.122681,86.072243 
	C92.232750,90.243080 94.544258,92.528313 98.604088,92.789948 
	C102.660538,93.051369 104.975143,90.252014 105.309853,84.171150 
M67.509758,80.942802 
	C65.125900,83.482452 63.836044,86.614685 66.391159,89.301888 
	C68.043243,91.039391 71.086700,92.413414 73.435959,92.312042 
	C77.323769,92.144287 79.618416,87.790909 78.506996,84.231743 
	C77.123657,79.801819 73.553902,78.506126 67.509758,80.942802 
z"/>
<path fill="#FFFFFF" opacity="1.000000" stroke="none" 
	d="
M51.468658,160.000000 
	C53.999424,157.361801 56.922523,154.628372 60.036251,152.132782 
	C61.262737,151.149765 63.211308,149.780991 64.328156,150.142319 
	C79.312065,154.990097 94.723999,152.239044 109.923210,153.023865 
	C120.829666,153.586990 131.151581,151.372726 141.017624,146.627670 
	C144.598587,151.490707 145.844574,158.111954 152.896851,159.643341 
	C119.312439,160.000000 85.624878,160.000000 51.468658,160.000000 
z"/>
<path fill="#000000" opacity="1.000000" stroke="none" 
	d="
M833.081909,113.000000 
	C830.942200,113.000000 829.289429,113.000000 827.000000,113.000000 
	C827.000000,109.268623 827.000000,105.675728 827.000000,102.082840 
	C827.000000,91.916199 827.050476,81.749229 826.983582,71.583031 
	C826.932739,63.845753 823.526855,60.982845 814.657166,61.000004 
	C808.605591,61.011711 804.022339,65.625427 804.008972,71.831741 
	C803.979858,85.325111 804.000000,98.818596 804.000000,112.655891 
	C797.169983,112.655891 790.426331,112.655891 783.000000,112.655891 
	C783.000000,111.145393 783.000000,109.394447 783.000000,107.643501 
	C783.000000,95.476868 782.993713,83.310226 783.003357,71.143600 
	C783.006897,66.676941 782.351379,62.188786 777.263062,61.112942 
	C769.203857,59.408962 763.306519,61.888481 761.317078,67.316597 
	C760.497437,69.553108 760.079041,72.057228 760.056396,74.445137 
	C759.936218,87.093254 760.000000,99.743095 760.000000,112.695816 
	C753.419373,112.695816 747.011108,112.695816 740.299744,112.695816 
	C740.299744,90.737183 740.299744,68.664627 740.299744,46.295429 
	C746.607056,46.295429 753.022217,46.295429 759.754456,46.295429 
	C759.754456,47.922760 759.754456,49.673008 759.754456,51.929539 
	C766.181213,47.874016 772.476013,44.622894 779.782288,45.061546 
	C786.950806,45.491936 793.292542,48.125103 798.243286,53.782978 
	C809.157288,45.244576 821.198303,42.603180 834.399353,47.196537 
	C839.765076,49.063541 843.135376,53.338543 844.731995,58.585987 
	C845.987366,62.711655 846.816162,67.119774 846.900696,71.420776 
	C847.169006,85.067207 847.000000,98.722229 847.000000,113.000000 
	C842.421143,113.000000 837.994934,113.000000 833.081909,113.000000 
z"/>
<path fill="#000000" opacity="1.000000" stroke="none" 
	d="
M483.000122,49.166229 
	C483.942688,47.787258 484.854462,46.161510 485.832611,46.120544 
	C491.647003,45.877056 497.476746,46.000244 503.641785,46.000244 
	C503.840973,47.230125 504.030151,48.398251 504.225800,49.606335 
	C515.000732,42.393795 532.614502,45.444859 542.161865,55.623878 
	C551.963928,66.074440 554.102844,87.539169 546.320190,99.163963 
	C537.642944,112.125046 522.454041,118.591965 504.000000,109.869858 
	C504.000000,119.876953 503.731323,129.608353 504.114014,139.314056 
	C504.303680,144.124207 502.654083,145.573303 498.129272,145.058914 
	C495.333801,144.741104 492.472778,145.000381 489.641205,144.999924 
	C483.002045,144.998886 483.000427,144.998718 483.000305,138.596664 
	C482.999664,108.948341 483.000000,79.300026 483.000122,49.166229 
M528.984924,88.165184 
	C531.256836,81.726021 531.197327,75.222305 527.965881,69.276131 
	C523.003418,60.144680 515.261230,58.858467 509.363129,63.270115 
	C501.857513,68.884117 499.582764,80.722527 503.867310,89.327759 
	C507.888336,97.403702 515.051208,101.365639 521.866638,96.870979 
	C524.663513,95.026505 526.414124,91.595444 528.984924,88.165184 
z"/>
<path fill="#000000" opacity="1.000000" stroke="none" 
	d="
M905.487427,112.811356 
	C896.416626,115.019585 888.134705,114.246117 880.038452,109.206085 
	C880.038452,121.172546 880.038452,132.862167 880.038452,144.772293 
	C873.261841,144.772293 866.859131,144.772293 860.227234,144.772293 
	C860.227234,111.936424 860.227234,79.211037 860.227234,46.242596 
	C866.726624,46.242596 873.150879,46.242596 879.810181,46.242596 
	C879.916138,47.654907 880.023254,49.082722 880.178284,51.149883 
	C887.860413,42.770851 897.162048,43.970150 905.907349,47.220230 
	C914.767395,50.512920 921.302673,56.927402 925.121216,66.091873 
	C930.483398,78.960899 928.543884,90.691467 920.997803,101.898270 
	C917.322021,107.357170 911.932190,110.488869 905.487427,112.811356 
M897.058655,97.981224 
	C909.767273,92.152901 909.941101,71.804245 900.881897,64.272621 
	C897.013245,61.056328 892.017334,60.043278 887.461731,62.161858 
	C881.057068,65.140350 875.690491,74.280113 878.934021,86.638206 
	C881.093079,94.864479 888.445740,99.956993 897.058655,97.981224 
z"/>
<path fill="#000000" opacity="1.000000" stroke="none" 
	d="
M365.018646,95.933075 
	C363.265747,91.061287 361.531281,86.592453 359.435974,81.194069 
	C356.409851,88.619591 353.574310,95.165878 351.062103,101.833977 
	C346.814056,113.109627 346.900024,113.143211 335.091309,112.994659 
	C334.599487,112.988480 334.108490,112.921196 333.611206,112.881912 
	C325.233093,90.755905 316.872070,68.675079 308.351807,46.173622 
	C315.639038,46.173622 322.101624,46.173622 328.774536,46.173622 
	C332.523834,58.020386 336.273529,69.868462 340.403381,82.917656 
	C343.171661,74.341927 345.639954,66.883583 347.974396,59.383579 
	C349.117340,55.711460 349.798218,51.881519 351.149017,48.296635 
	C351.551483,47.228554 353.474915,46.202377 354.773590,46.103378 
	C358.576691,45.813446 362.416168,46.000202 366.605042,46.000202 
	C370.340454,57.959908 374.077026,69.923180 377.813568,81.886459 
	C378.129578,81.853745 378.445557,81.821030 378.761566,81.788315 
	C382.175568,70.696243 385.519836,59.581486 389.111664,48.547310 
	C389.469757,47.447285 391.301483,46.175064 392.505829,46.114891 
	C397.807404,45.849987 403.129700,46.000523 409.967224,46.000523 
	C407.985962,51.776711 406.344788,56.975098 404.428772,62.070103 
	C398.570740,77.647278 392.471527,93.135506 386.790497,108.776146 
	C385.547607,112.197975 383.953186,113.408653 380.465088,113.060829 
	C377.507690,112.765923 374.497528,113.000000 371.741608,113.000000 
	C369.436127,107.269775 367.236603,101.802910 365.018646,95.933075 
z"/>
<path fill="#000000" opacity="1.000000" stroke="none" 
	d="
M429.089050,47.970703 
	C441.055573,44.007317 460.067719,44.630230 466.760529,54.363487 
	C468.531708,56.939266 470.742462,59.969414 470.808960,62.835979 
	C471.193573,79.420761 470.996765,96.019028 470.996765,112.565727 
	C456.631256,114.146057 451.825012,113.555717 450.278351,109.896080 
	C440.731995,115.020973 431.032990,115.519730 420.993011,111.092239 
	C415.947205,108.867111 411.072052,102.714874 411.000031,97.275917 
	C410.775024,80.284401 421.120239,70.004120 438.448761,70.000137 
	C442.434021,69.999222 446.419250,70.000000 450.659882,70.000000 
	C451.807190,66.266350 449.495758,64.478096 446.957153,63.008751 
	C442.555237,60.460922 434.871277,61.897945 430.074219,66.122887 
	C425.453613,63.412556 420.766754,60.663345 414.881653,57.211262 
	C419.942413,53.831356 424.310486,50.914085 429.089050,47.970703 
M445.473328,84.999992 
	C442.416473,85.336197 439.258209,85.303749 436.330475,86.109261 
	C433.220886,86.964828 431.766357,89.355484 431.928162,92.851341 
	C432.073578,95.993034 433.222748,97.258560 436.390869,98.176666 
	C445.307159,100.760605 450.517456,96.026146 449.716583,85.172829 
	C448.641693,85.116669 447.525177,85.058334 445.473328,84.999992 
z"/>
<path fill="#000000" opacity="1.000000" stroke="none" 
	d="
M667.122742,99.328102 
	C667.535522,94.233948 667.339905,89.336197 668.739502,84.947128 
	C671.025696,77.777695 676.955017,73.661530 684.002319,72.142151 
	C691.442444,70.538071 699.125793,70.061989 708.030212,68.923416 
	C705.903503,66.660881 704.309265,63.466515 701.981689,62.788101 
	C696.467590,61.180927 690.568298,60.594357 686.271240,66.210617 
	C681.159058,63.245625 676.215515,60.378468 671.148193,57.439507 
	C677.991638,49.649681 686.406311,45.648548 696.857483,45.970860 
	C703.514893,46.176174 710.224060,45.338692 716.405334,49.045113 
	C723.076172,53.045067 726.922119,58.619747 726.971558,66.442635 
	C727.068359,81.748642 727.000000,97.055710 727.000000,112.680954 
	C720.448914,112.680954 714.037292,112.680954 707.215393,112.680954 
	C707.104553,111.736198 706.968140,110.574211 706.821289,109.322426 
	C689.568054,119.506294 670.360229,112.384827 667.122742,99.328102 
M697.898010,98.629250 
	C705.796570,95.983604 707.799866,92.832207 706.280212,84.419044 
	C701.228638,85.090179 696.002319,85.318741 691.092651,86.685265 
	C689.334900,87.174522 687.354126,90.383102 687.293701,92.404861 
	C687.239380,94.224480 689.333984,96.618568 691.113525,97.828690 
	C692.665833,98.884323 695.100586,98.642395 697.898010,98.629250 
z"/>
<path fill="#000000" opacity="1.000000" stroke="none" 
	d="
M610.000000,95.685051 
	C608.654236,103.484337 603.909729,107.974770 597.468384,111.094208 
	C582.298157,118.440895 565.514526,111.669365 556.523865,101.992691 
	C560.704285,97.839561 564.880737,93.690407 569.234192,89.365364 
	C571.801392,91.175636 574.704224,93.908913 578.142944,95.434120 
	C580.983643,96.694099 584.507507,97.058159 587.630310,96.766335 
	C589.195801,96.620041 590.541931,94.126068 591.987244,92.693848 
	C590.693909,91.456512 589.610596,89.657867 588.069946,89.081154 
	C582.107910,86.849419 576.011536,84.971001 569.943481,83.029160 
	C562.814636,80.747887 559.081604,75.442894 558.109009,68.483299 
	C556.988403,60.464355 560.624756,54.378910 567.345520,49.938297 
	C579.337097,42.014996 600.677307,45.568447 608.738586,57.563503 
	C604.755310,61.597668 600.820679,65.582603 596.536377,69.921623 
	C592.801025,65.772202 588.163574,61.785522 581.406433,63.084679 
	C579.833984,63.386997 578.465515,64.750488 577.003235,65.625710 
	C578.074524,67.412415 578.740112,70.145958 580.292053,70.811081 
	C585.260742,72.940506 590.572205,74.260498 595.725220,75.971657 
	C606.310181,79.486633 610.000000,84.502647 610.000000,95.685051 
z"/>
<path fill="#000000" opacity="1.000000" stroke="none" 
	d="
M280.093567,63.000000 
	C277.786774,63.965496 275.908813,64.930992 274.030853,65.896492 
	C275.217804,67.556053 276.054352,70.019020 277.659760,70.719246 
	C281.881866,72.560806 286.600952,73.265289 290.817566,75.116440 
	C295.320862,77.093452 299.760040,79.477013 303.715179,82.380585 
	C309.519562,86.641739 308.926880,97.020271 305.659790,101.996498 
	C300.380341,110.037865 292.962860,113.390633 283.628113,114.078255 
	C271.531158,114.969353 262.322998,109.659393 254.221451,101.833931 
	C258.518494,97.555466 262.729340,93.362808 267.067230,89.043694 
	C269.544861,91.042297 271.889374,94.089905 274.906555,95.073013 
	C278.632111,96.286919 282.928925,96.040771 286.951904,95.851646 
	C288.016968,95.801575 289.739746,93.658630 289.763550,92.449158 
	C289.783936,91.414528 287.980072,89.809906 286.677704,89.377922 
	C281.669800,87.716789 276.467041,86.639145 271.469849,84.950546 
	C262.068665,81.773811 255.302292,74.911316 255.913422,65.143410 
	C256.393799,57.465462 262.281403,50.321785 271.229919,46.964474 
	C285.714630,41.530083 296.443909,48.421959 306.692017,56.760273 
	C302.300140,61.168728 298.144043,65.340538 294.573425,68.924644 
	C290.017700,67.003708 285.270050,65.001854 280.093567,63.000000 
z"/>
<path fill="#000000" opacity="1.000000" stroke="none" 
	d="
M657.598389,62.605785 
	C652.302612,62.943474 647.351074,62.943474 642.003723,62.943474 
	C642.003723,72.325920 641.736206,81.282417 642.098450,90.213371 
	C642.337402,96.105621 649.728516,99.243973 655.275879,96.190956 
	C655.942871,95.823898 656.527161,95.306702 657.993103,94.252846 
	C657.993103,99.863480 658.481567,104.656990 657.857056,109.300827 
	C657.220520,114.033958 652.159363,113.457741 649.243652,113.778099 
	C631.310120,115.748489 623.132263,107.291290 622.094849,90.135834 
	C621.555969,81.223846 622.000000,72.252403 622.000000,63.124275 
	C619.595398,63.124275 617.635742,63.124275 615.337402,63.124275 
	C615.337402,57.408680 615.337402,51.872238 615.337402,46.133804 
	C617.386475,46.133804 619.343567,46.133804 621.687378,46.133804 
	C621.687378,39.880264 621.687378,33.799541 621.687378,27.360153 
	C628.457031,27.360153 634.865051,27.360153 641.670776,27.360153 
	C641.670776,33.119827 641.670776,39.196377 641.670776,45.667191 
	C647.115295,45.667191 652.193665,45.667191 657.942505,45.667191 
	C657.942505,51.444225 657.942505,56.856159 657.598389,62.605785 
z"/>
<path fill="#F4F4F4" opacity="1.000000" stroke="none" 
	d="
M128.111923,79.745705 
	C132.385193,82.206604 133.392639,85.583298 131.410629,89.553207 
	C129.583954,93.211990 126.249008,93.455635 122.826515,92.193390 
	C119.311676,90.897095 118.115753,87.986145 118.956551,84.559937 
	C120.075302,80.001091 123.338364,78.638847 128.111923,79.745705 
z"/>
<path fill="#F1F1F1" opacity="1.000000" stroke="none" 
	d="
M105.394775,84.534790 
	C104.975143,90.252014 102.660538,93.051369 98.604088,92.789948 
	C94.544258,92.528313 92.232750,90.243080 92.122681,86.072243 
	C92.031387,82.613159 93.849220,80.260666 97.099625,79.594521 
	C100.910583,78.813499 103.943382,80.188469 105.394775,84.534790 
z"/>
<path fill="#F0F0F0" opacity="1.000000" stroke="none" 
	d="
M67.806107,80.699036 
	C73.553902,78.506126 77.123657,79.801819 78.506996,84.231743 
	C79.618416,87.790909 77.323769,92.144287 73.435959,92.312042 
	C71.086700,92.413414 68.043243,91.039391 66.391159,89.301888 
	C63.836044,86.614685 65.125900,83.482452 67.806107,80.699036 
z"/>
<path fill="#FFFFFF" opacity="1.000000" stroke="none" 
	d="
M528.812744,88.525650 
	C526.414124,91.595444 524.663513,95.026505 521.866638,96.870979 
	C515.051208,101.365639 507.888336,97.403702 503.867310,89.327759 
	C499.582764,80.722527 501.857513,68.884117 509.363129,63.270115 
	C515.261230,58.858467 523.003418,60.144680 527.965881,69.276131 
	C531.197327,75.222305 531.256836,81.726021 528.812744,88.525650 
z"/>
<path fill="#FFFFFF" opacity="1.000000" stroke="none" 
	d="
M896.660278,97.990044 
	C888.445740,99.956993 881.093079,94.864479 878.934021,86.638206 
	C875.690491,74.280113 881.057068,65.140350 887.461731,62.161858 
	C892.017334,60.043278 897.013245,61.056328 900.881897,64.272621 
	C909.941101,71.804245 909.767273,92.152901 896.660278,97.990044 
z"/>
<path fill="#FFFFFF" opacity="1.000000" stroke="none" 
	d="
M445.941010,85.000000 
	C447.525177,85.058334 448.641693,85.116669 449.716583,85.172829 
	C450.517456,96.026146 445.307159,100.760605 436.390869,98.176666 
	C433.222748,97.258560 432.073578,95.993034 431.928162,92.851341 
	C431.766357,89.355484 433.220886,86.964828 436.330475,86.109261 
	C439.258209,85.303749 442.416473,85.336197 445.941010,85.000000 
z"/>
<path fill="#FFFFFF" opacity="1.000000" stroke="none" 
	d="
M697.521729,98.801514 
	C695.100586,98.642395 692.665833,98.884323 691.113525,97.828690 
	C689.333984,96.618568 687.239380,94.224480 687.293701,92.404861 
	C687.354126,90.383102 689.334900,87.174522 691.092651,86.685265 
	C696.002319,85.318741 701.228638,85.090179 706.280212,84.419044 
	C707.799866,92.832207 705.796570,95.983604 697.521729,98.801514 
z"/>
</svg>