<svg version="1.1" id="Layer_1" xmlns="http://www.w3.org/2000/svg" xmlns:xlink="http://www.w3.org/1999/xlink" x="0px" y="0px"
	 width="100%" viewBox="0 0 930 159" enable-background="new 0 0 930 159" xml:space="preserve">
<path fill="#FFFFFF" opacity="1.000000" stroke="none" 
	d="
M44.000000,160.000000 
	C29.669662,160.000000 15.339326,160.000000 1.006741,160.000000 
	C1.004494,107.014076 1.004494,54.028149 1.004494,1.021112 
	C310.921112,1.021112 620.842224,1.021112 930.881714,1.021112 
	C930.881714,53.909809 930.881714,106.819969 930.881714,160.000000 
	C674.643433,160.000000 418.286713,160.000000 161.600769,159.674042 
	C165.680511,156.843384 170.081482,154.324448 174.500275,151.837204 
	C181.898422,147.672974 183.969208,141.112518 180.103149,133.516800 
	C177.875015,129.139130 175.310104,124.931061 173.138977,120.527252 
	C172.498550,119.228226 172.162704,117.358276 172.578583,116.028786 
	C174.949265,108.450180 177.589417,100.955879 180.286270,92.995232 
	C181.677475,92.995232 183.663315,93.054062 185.644470,92.982666 
	C189.459732,92.845169 192.301453,90.539703 192.635239,87.180435 
	C192.861588,84.902519 191.049408,81.902412 189.256638,80.125565 
	C188.054489,78.934090 185.194412,79.591568 183.254181,78.912865 
	C181.701569,78.369759 179.650391,77.357079 179.140564,76.041321 
	C176.264664,68.618950 174.580505,60.640842 171.016861,53.597603 
	C162.390579,36.548489 148.152832,25.559097 129.741440,21.175512 
	C111.538200,16.841484 92.866539,18.434082 74.412018,20.142746 
	C69.475540,20.599804 65.307167,20.376312 60.806171,18.115326 
	C56.189583,15.796269 51.065781,14.386327 46.049999,12.987017 
	C39.171356,11.068004 36.450539,12.719595 35.005783,19.878952 
	C33.714832,26.276148 32.654068,32.757141 32.090248,39.253105 
	C31.538210,45.613342 27.362972,50.266975 25.372852,55.811222 
	C23.110132,62.114883 20.052069,64.988960 13.245678,65.182228 
	C7.164994,65.354881 4.562780,68.579773 4.875027,73.800941 
	C5.351750,81.772377 5.110337,89.795425 4.959970,97.792542 
	C4.865017,102.842575 6.982241,105.856972 11.918573,107.090126 
	C14.914123,107.838455 17.843704,108.884254 20.747286,109.948235 
	C21.695129,110.295563 22.834162,110.932320 23.262096,111.759392 
	C26.791292,118.580231 30.892935,124.812851 24.345476,132.908112 
	C19.804508,138.522568 21.403858,144.798645 27.165922,149.421860 
	C32.300755,153.541809 38.352760,156.518677 44.000000,160.000000 
M847.000000,91.499878 
	C847.000000,87.666702 847.225342,83.817284 846.950562,80.003914 
	C846.459717,73.192955 846.088135,66.327385 844.873169,59.628559 
	C843.820129,53.822636 840.175110,49.230270 834.470154,47.246910 
	C821.298950,42.667805 809.202942,45.174713 798.232178,53.770000 
	C793.380493,48.148411 787.022034,45.521992 779.868042,45.068829 
	C772.530701,44.604046 766.185120,47.816154 759.804382,51.956059 
	C759.804382,49.741974 759.804382,47.987366 759.804382,46.264053 
	C753.097656,46.264053 746.679016,46.264053 740.267212,46.264053 
	C740.267212,68.600548 740.267212,90.671913 740.267212,112.728683 
	C746.943970,112.728683 753.349182,112.728683 760.000000,112.728683 
	C760.000000,99.818962 759.919739,87.178230 760.067810,74.540176 
	C760.097412,72.016525 760.636963,69.359070 761.570740,67.013840 
	C763.759094,61.516888 770.192871,58.982273 777.656677,61.125523 
	C782.257019,62.446510 782.998535,66.766991 782.999512,71.046898 
	C783.001343,79.213142 783.000000,87.379387 783.000000,95.545631 
	C783.000000,101.307594 783.000000,107.069557 783.000000,112.691162 
	C790.354492,112.691162 797.095825,112.691162 804.000000,112.691162 
	C804.000000,98.733109 803.977600,85.083229 804.012634,71.433502 
	C804.024109,66.968407 808.377136,61.418770 812.054688,61.000721 
	C820.818909,60.004436 825.748901,62.563416 826.893921,68.994186 
	C827.296875,71.257065 826.997192,73.647148 826.997986,75.979156 
	C827.002258,88.245094 827.000000,100.511040 827.000000,112.715012 
	C833.971375,112.715012 840.377686,112.715012 847.000000,112.715012 
	C847.000000,105.788124 847.000000,99.143967 847.000000,91.499878 
M537.486755,51.990429 
	C532.793884,48.345268 527.726685,45.987000 521.550171,45.926548 
	C513.290833,45.845707 505.120209,47.923042 496.746063,46.162632 
	C492.361481,45.240906 487.623566,46.000000 483.000061,46.000000 
	C483.000061,78.002060 483.049561,109.285934 482.932709,140.569199 
	C482.919250,144.177032 484.220886,145.247101 487.612274,145.050781 
	C491.427032,144.829956 495.286316,144.744308 499.086121,145.068985 
	C503.222809,145.422440 504.166016,143.691132 504.077118,139.867783 
	C503.847137,129.976624 504.000000,120.076546 504.000000,109.712868 
	C505.508606,110.323555 506.418518,110.586655 507.225891,111.034615 
	C518.349487,117.206436 534.364990,112.698036 541.297852,105.320602 
	C549.928467,96.136688 552.587830,84.993690 550.678223,73.318665 
	C549.360107,65.259865 546.087158,57.087345 537.486755,51.990429 
M889.548035,45.924500 
	C886.399597,47.281422 883.251160,48.638344 880.071167,50.008865 
	C880.026184,49.135704 879.953430,47.722206 879.882935,46.353302 
	C873.186951,46.353302 866.630371,46.353302 860.335571,46.353302 
	C860.335571,79.432106 860.335571,112.157089 860.335571,144.664276 
	C867.082031,144.664276 873.489319,144.664276 880.048950,144.664276 
	C880.048950,132.725067 880.048950,121.120735 880.048950,109.417816 
	C895.159851,118.283272 913.413147,113.848755 922.076233,100.342865 
	C929.882141,88.173309 930.739258,75.019768 923.637451,62.651943 
	C916.502563,50.226376 905.102356,43.788345 889.548035,45.924500 
M327.449768,96.963699 
	C329.518738,102.282936 331.587708,107.602180 333.687225,113.000000 
	C336.915375,113.000000 340.085876,112.845398 343.233826,113.045593 
	C346.102325,113.228012 347.381805,112.429832 348.419586,109.388710 
	C351.479706,100.421356 355.199707,91.679207 358.661438,82.848915 
	C359.105133,82.802177 359.548828,82.755440 359.992523,82.708710 
	C363.862213,92.755951 367.731873,102.803192 371.659149,112.999969 
	C374.961700,112.999969 378.293060,112.869522 381.608826,113.040680 
	C384.328918,113.181091 385.334778,112.224098 386.344727,109.497459 
	C392.851837,91.930008 399.786163,74.521301 406.457733,57.013798 
	C407.742737,53.641712 408.485443,50.062954 409.643280,46.000751 
	C403.253784,46.000751 397.770386,45.818790 392.317566,46.146286 
	C391.154419,46.216148 389.522644,47.943829 389.090607,49.236568 
	C385.487793,60.017063 382.115356,70.874557 378.202301,83.191528 
	C374.056213,69.872894 370.364807,58.014839 366.624603,46.000080 
	C362.667572,46.000080 358.843384,46.083073 355.024933,45.970951 
	C352.471344,45.895977 351.598541,46.710323 350.839844,49.448635 
	C347.816101,60.361729 344.201813,71.111198 340.459473,83.024834 
	C336.301544,69.941429 332.498383,57.974304 328.794159,46.318535 
	C321.898834,46.318535 315.503448,46.318535 308.537048,46.318535 
	C309.794678,49.768578 310.869476,52.763142 311.976440,55.745766 
	C316.990448,69.255814 322.013580,82.762489 327.449768,96.963699 
M434.760254,62.779037 
	C443.201569,60.340233 452.174072,62.841331 450.646973,70.000000 
	C446.567108,70.000000 442.422272,69.998337 438.277405,70.000290 
	C421.061646,70.008377 410.697388,80.437935 411.000000,97.448151 
	C411.092377,102.638466 415.919373,109.009277 420.677124,111.051315 
	C430.831573,115.409660 440.731873,115.163116 450.419556,109.823730 
	C451.821350,113.443359 459.251648,114.303314 470.999237,112.442604 
	C470.999237,96.044296 471.188934,79.596008 470.820892,63.160217 
	C470.756134,60.268188 468.854034,57.031990 466.944641,54.637054 
	C460.598206,46.676842 451.697266,45.941059 442.194885,45.825893 
	C431.399445,45.695057 422.821808,49.181961 415.981079,57.825832 
	C420.674896,60.600708 425.345154,63.361656 430.028625,66.130417 
	C431.434204,65.014412 432.703308,64.006767 434.760254,62.779037 
M697.521606,70.000000 
	C696.023315,70.000000 694.510071,69.861404 693.029175,70.021721 
	C680.174927,71.413269 665.154846,78.313972 666.906128,96.253387 
	C667.575989,103.115448 672.060547,109.794739 678.688843,112.013313 
	C688.371704,115.254295 697.721619,115.189377 706.749084,109.052879 
	C706.942810,110.564545 707.090942,111.720451 707.216736,112.702194 
	C713.987366,112.702194 720.399658,112.702194 726.999634,112.702194 
	C726.999634,96.442856 727.296570,80.472290 726.853760,64.522255 
	C726.676147,58.122036 722.934082,53.255291 717.302612,49.628201 
	C710.078979,44.975594 702.214050,45.975979 694.445801,46.054367 
	C684.924622,46.150440 677.290283,50.334736 671.165344,57.493252 
	C676.317566,60.463650 681.174744,63.263935 685.990906,66.040588 
	C690.615784,62.241734 697.784546,60.361378 701.903076,62.618168 
	C704.264709,63.912262 705.875916,66.575836 707.824890,68.622879 
	C707.487732,69.081917 707.150513,69.540962 706.813354,70.000000 
	C704.036682,70.000000 701.260010,70.000000 697.521606,70.000000 
M558.000000,65.576225 
	C558.013916,73.955002 562.340271,80.318405 570.023560,83.005249 
	C575.733459,85.002022 581.573792,86.648407 587.198547,88.852638 
	C588.883911,89.513092 590.039368,91.525734 591.437622,92.918892 
	C589.633423,94.279251 587.979492,96.500168 585.998230,96.845985 
	C578.728333,98.114891 573.983582,93.114555 569.225159,88.968681 
	C564.888489,93.388260 560.715332,97.641266 556.454224,101.983841 
	C565.090637,110.865723 576.031067,115.379486 588.969238,113.909538 
	C596.867554,113.012184 603.765686,109.204666 607.766479,102.283157 
	C613.656494,92.093330 609.519165,80.791122 596.488647,76.042473 
	C591.242065,74.130463 585.852295,72.598175 580.488953,71.025146 
	C577.532288,70.158005 576.269226,68.037666 577.197021,65.475700 
	C577.631653,64.275497 579.995117,63.378220 581.621033,63.074333 
	C588.245117,61.836273 592.711182,65.767059 597.566040,71.056213 
	C599.593445,68.623901 601.259338,66.344070 603.218201,64.352425 
	C605.274963,62.261272 607.612427,60.446270 609.765137,58.564770 
	C599.843872,47.705997 589.221191,43.899952 576.383179,46.011086 
	C566.814209,47.584641 558.565369,55.969906 558.000000,65.576225 
M268.738953,83.974693 
	C274.239136,85.647057 279.806427,87.134674 285.202026,89.094933 
	C287.018646,89.754921 288.399048,91.615517 289.978821,92.927383 
	C288.084229,94.283447 286.360504,96.353455 284.261566,96.855888 
	C278.896606,98.140160 274.263702,95.943069 270.625092,92.050270 
	C267.892578,89.126846 265.784912,89.446503 263.230896,92.194008 
	C260.285980,95.362030 257.074707,98.282433 253.879776,101.407494 
	C265.257477,112.966949 278.294647,117.369255 293.843933,111.958153 
	C299.986694,109.820496 305.459839,105.564095 306.618439,99.553261 
	C307.878357,93.016548 309.281769,84.944321 301.640717,80.262207 
	C298.131226,78.111740 294.226135,76.535797 290.366425,75.046761 
	C286.043579,73.379059 281.448639,72.376999 277.226501,70.509918 
	C275.768372,69.865120 275.073669,67.493942 274.030243,65.911362 
	C275.738190,64.940918 277.344238,63.453712 279.172455,63.093189 
	C285.662018,61.813442 289.791809,66.130463 293.603973,69.962318 
	C298.059723,65.542007 302.293823,61.341606 306.794678,56.876549 
	C296.600433,48.406818 285.717072,41.455315 271.075409,46.993046 
	C261.812286,50.496525 255.290421,58.162495 255.934265,67.327324 
	C256.509430,75.514763 261.378235,80.140427 268.738953,83.974693 
M649.680725,97.000000 
	C645.030457,97.553329 642.447449,94.268478 642.219910,90.825974 
	C641.611328,81.618118 642.012573,72.343521 642.012573,62.714741 
	C647.756104,62.714741 652.834473,62.714741 657.658081,62.714741 
	C657.658081,56.904354 657.658081,51.494827 657.658081,45.710350 
	C652.239441,45.710350 647.162720,45.710350 641.709167,45.710350 
	C641.709167,39.237755 641.709167,33.162552 641.709167,27.344795 
	C634.899963,27.344795 628.491455,27.344795 621.720947,27.344795 
	C621.720947,33.776695 621.720947,39.866131 621.720947,46.119595 
	C619.375549,46.119595 617.413940,46.119595 615.325684,46.119595 
	C615.325684,51.850193 615.325684,57.391666 615.325684,63.300816 
	C617.728210,63.300816 619.799500,63.300816 622.000000,63.300816 
	C622.000000,72.492561 621.561768,81.336029 622.093140,90.120857 
	C623.131897,107.294579 631.315735,115.749451 649.244873,113.777351 
	C652.158813,113.456825 657.224426,114.039223 657.858093,109.295593 
	C658.478516,104.651382 657.993164,99.859451 657.993164,95.382614 
	C655.098999,96.010567 652.818909,96.505295 649.680725,97.000000 
z"/>
<path fill="#E131B0" opacity="1.000000" stroke="none" 
	d="
M44.437500,160.000000 
	C38.352760,156.518677 32.300755,153.541809 27.165922,149.421860 
	C21.403858,144.798645 19.804508,138.522568 24.345476,132.908112 
	C30.892935,124.812851 26.791292,118.580231 23.262096,111.759392 
	C22.834162,110.932320 21.695129,110.295563 20.747286,109.948235 
	C17.843704,108.884254 14.914123,107.838455 11.918573,107.090126 
	C6.982241,105.856972 4.865017,102.842575 4.959970,97.792542 
	C5.110337,89.795425 5.351750,81.772377 4.875027,73.800941 
	C4.562780,68.579773 7.164994,65.354881 13.245678,65.182228 
	C20.052069,64.988960 23.110132,62.114883 25.372852,55.811222 
	C27.362972,50.266975 31.538210,45.613342 32.090248,39.253105 
	C32.654068,32.757141 33.714832,26.276148 35.005783,19.878952 
	C36.450539,12.719595 39.171356,11.068004 46.049999,12.987017 
	C51.065781,14.386327 56.189583,15.796269 60.806171,18.115326 
	C65.307167,20.376312 69.475540,20.599804 74.412018,20.142746 
	C92.866539,18.434082 111.538200,16.841484 129.741440,21.175512 
	C148.152832,25.559097 162.390579,36.548489 171.016861,53.597603 
	C174.580505,60.640842 176.264664,68.618950 179.140564,76.041321 
	C179.650391,77.357079 181.701569,78.369759 183.254181,78.912865 
	C185.194412,79.591568 188.054489,78.934090 189.256638,80.125565 
	C191.049408,81.902412 192.861588,84.902519 192.635239,87.180435 
	C192.301453,90.539703 189.459732,92.845169 185.644470,92.982666 
	C183.663315,93.054062 181.677475,92.995232 180.286270,92.995232 
	C177.589417,100.955879 174.949265,108.450180 172.578583,116.028786 
	C172.162704,117.358276 172.498550,119.228226 173.138977,120.527252 
	C175.310104,124.931061 177.875015,129.139130 180.103149,133.516800 
	C183.969208,141.112518 181.898422,147.672974 174.500275,151.837204 
	C170.081482,154.324448 165.680511,156.843384 161.135773,159.674042 
	C157.969406,160.000000 154.938812,160.000000 151.348038,159.670334 
	C147.380066,155.352066 143.972275,151.363464 140.547165,147.354584 
	C135.661621,148.825455 130.460587,151.423691 125.103218,151.800735 
	C111.765564,152.739426 98.356682,152.893250 84.976494,152.890747 
	C79.467789,152.889709 73.823227,152.215393 68.490211,150.862686 
	C63.469738,149.589279 60.051487,149.910294 57.851334,155.125931 
	C57.315132,156.397064 55.397415,157.085388 53.751816,158.034027 
	C52.592487,158.684265 51.796246,159.342133 51.000000,160.000000 
	C48.958332,160.000000 46.916668,160.000000 44.437500,160.000000 
M74.725739,80.349159 
	C69.092323,79.727707 65.682388,81.480492 66.176689,85.323112 
	C66.470001,87.603363 67.982178,90.551109 69.834274,91.546448 
	C71.323357,92.346687 74.759422,91.320557 76.239723,89.936790 
	C78.713020,87.624809 78.811058,84.453178 75.794220,81.484634 
	C75.631607,81.267059 75.422302,81.112846 74.725739,80.349159 
M124.724251,80.012993 
	C122.845123,81.989120 120.490952,83.725571 119.315010,86.056465 
	C118.828072,87.021652 120.498543,90.179955 121.834824,90.710075 
	C124.022713,91.578026 126.959633,91.735893 129.145370,90.962761 
	C130.341064,90.539818 131.136429,87.621597 131.245712,85.777260 
	C131.466873,82.044830 129.308762,80.078743 124.724251,80.012993 
M93.001831,86.410126 
	C93.414185,90.378593 95.768501,92.789780 99.531448,91.747246 
	C101.667107,91.155563 104.238960,88.622078 104.756874,86.508049 
	C105.593330,83.093750 103.049118,80.601242 99.573967,80.104355 
	C95.637810,79.541565 93.407211,81.626846 93.001831,86.410126 
z"/>
<path fill="#FFFFFF" opacity="1.000000" stroke="none" 
	d="
M54.114902,158.041672 
	C55.397415,157.085388 57.315132,156.397064 57.851334,155.125931 
	C60.051487,149.910294 63.469738,149.589279 68.490211,150.862686 
	C73.823227,152.215393 79.467789,152.889709 84.976494,152.890747 
	C98.356682,152.893250 111.765564,152.739426 125.103218,151.800735 
	C130.460587,151.423691 135.661621,148.825455 140.547165,147.354584 
	C143.972275,151.363464 147.380066,155.352066 150.893921,159.670334 
	C118.979103,160.000000 86.958214,160.000000 54.470627,159.672485 
	C54.040924,158.910522 54.077911,158.476105 54.114902,158.041672 
z"/>
<path fill="#E131B0" opacity="1.000000" stroke="none" 
	d="
M53.751816,158.034027 
	C54.077911,158.476105 54.040924,158.910522 54.001968,159.672485 
	C53.250000,160.000000 52.500000,160.000000 51.375000,160.000000 
	C51.796246,159.342133 52.592487,158.684265 53.751816,158.034027 
z"/>
<path fill="#000000" opacity="1.000000" stroke="none" 
	d="
M847.000000,91.999840 
	C847.000000,99.143967 847.000000,105.788124 847.000000,112.715012 
	C840.377686,112.715012 833.971375,112.715012 827.000000,112.715012 
	C827.000000,100.511040 827.002258,88.245094 826.997986,75.979156 
	C826.997192,73.647148 827.296875,71.257065 826.893921,68.994186 
	C825.748901,62.563416 820.818909,60.004436 812.054688,61.000721 
	C808.377136,61.418770 804.024109,66.968407 804.012634,71.433502 
	C803.977600,85.083229 804.000000,98.733109 804.000000,112.691162 
	C797.095825,112.691162 790.354492,112.691162 783.000000,112.691162 
	C783.000000,107.069557 783.000000,101.307594 783.000000,95.545631 
	C783.000000,87.379387 783.001343,79.213142 782.999512,71.046898 
	C782.998535,66.766991 782.257019,62.446510 777.656677,61.125523 
	C770.192871,58.982273 763.759094,61.516888 761.570740,67.013840 
	C760.636963,69.359070 760.097412,72.016525 760.067810,74.540176 
	C759.919739,87.178230 760.000000,99.818962 760.000000,112.728683 
	C753.349182,112.728683 746.943970,112.728683 740.267212,112.728683 
	C740.267212,90.671913 740.267212,68.600548 740.267212,46.264053 
	C746.679016,46.264053 753.097656,46.264053 759.804382,46.264053 
	C759.804382,47.987366 759.804382,49.741974 759.804382,51.956059 
	C766.185120,47.816154 772.530701,44.604046 779.868042,45.068829 
	C787.022034,45.521992 793.380493,48.148411 798.232178,53.770000 
	C809.202942,45.174713 821.298950,42.667805 834.470154,47.246910 
	C840.175110,49.230270 843.820129,53.822636 844.873169,59.628559 
	C846.088135,66.327385 846.459717,73.192955 846.950562,80.003914 
	C847.225342,83.817284 847.000000,87.666702 847.000000,91.999840 
z"/>
<path fill="#000000" opacity="1.000000" stroke="none" 
	d="
M537.749756,52.251526 
	C546.087158,57.087345 549.360107,65.259865 550.678223,73.318665 
	C552.587830,84.993690 549.928467,96.136688 541.297852,105.320602 
	C534.364990,112.698036 518.349487,117.206436 507.225891,111.034615 
	C506.418518,110.586655 505.508606,110.323555 504.000000,109.712868 
	C504.000000,120.076546 503.847137,129.976624 504.077118,139.867783 
	C504.166016,143.691132 503.222809,145.422440 499.086121,145.068985 
	C495.286316,144.744308 491.427032,144.829956 487.612274,145.050781 
	C484.220886,145.247101 482.919250,144.177032 482.932709,140.569199 
	C483.049561,109.285934 483.000061,78.002060 483.000061,46.000000 
	C487.623566,46.000000 492.361481,45.240906 496.746063,46.162632 
	C505.120209,47.923042 513.290833,45.845707 521.550171,45.926548 
	C527.726685,45.987000 532.793884,48.345268 537.749756,52.251526 
M508.061035,95.574608 
	C517.514465,100.926826 523.021362,99.050354 528.236389,89.418930 
	C530.968384,84.373436 530.846008,79.160133 529.831421,74.113930 
	C528.457703,67.281357 523.430420,61.552025 517.013550,61.017525 
	C510.846588,60.503841 505.759064,64.484070 503.174133,71.867584 
	C500.265137,80.176773 501.540649,88.155319 508.061035,95.574608 
z"/>
<path fill="#000000" opacity="1.000000" stroke="none" 
	d="
M889.854248,45.618813 
	C905.102356,43.788345 916.502563,50.226376 923.637451,62.651943 
	C930.739258,75.019768 929.882141,88.173309 922.076233,100.342865 
	C913.413147,113.848755 895.159851,118.283272 880.048950,109.417816 
	C880.048950,121.120735 880.048950,132.725067 880.048950,144.664276 
	C873.489319,144.664276 867.082031,144.664276 860.335571,144.664276 
	C860.335571,112.157089 860.335571,79.432106 860.335571,46.353302 
	C866.630371,46.353302 873.186951,46.353302 879.882935,46.353302 
	C879.953430,47.722206 880.026184,49.135704 880.071167,50.008865 
	C883.251160,48.638344 886.399597,47.281422 889.854248,45.618813 
M907.000000,77.695122 
	C905.898621,74.206345 905.454102,70.305550 903.572693,67.305984 
	C897.895752,58.255070 886.335999,59.133411 880.865906,68.407768 
	C876.952759,75.042381 877.076294,81.961594 879.414673,88.589348 
	C881.307556,93.954346 885.787415,98.384911 891.725647,98.718178 
	C896.425171,98.981918 900.770996,96.767525 903.718567,92.038498 
	C906.402466,87.732506 907.188416,83.394936 907.000000,77.695122 
z"/>
<path fill="#000000" opacity="1.000000" stroke="none" 
	d="
M327.241577,96.617035 
	C322.013580,82.762489 316.990448,69.255814 311.976440,55.745766 
	C310.869476,52.763142 309.794678,49.768578 308.537048,46.318535 
	C315.503448,46.318535 321.898834,46.318535 328.794159,46.318535 
	C332.498383,57.974304 336.301544,69.941429 340.459473,83.024834 
	C344.201813,71.111198 347.816101,60.361729 350.839844,49.448635 
	C351.598541,46.710323 352.471344,45.895977 355.024933,45.970951 
	C358.843384,46.083073 362.667572,46.000080 366.624603,46.000080 
	C370.364807,58.014839 374.056213,69.872894 378.202301,83.191528 
	C382.115356,70.874557 385.487793,60.017063 389.090607,49.236568 
	C389.522644,47.943829 391.154419,46.216148 392.317566,46.146286 
	C397.770386,45.818790 403.253784,46.000751 409.643280,46.000751 
	C408.485443,50.062954 407.742737,53.641712 406.457733,57.013798 
	C399.786163,74.521301 392.851837,91.930008 386.344727,109.497459 
	C385.334778,112.224098 384.328918,113.181091 381.608826,113.040680 
	C378.293060,112.869522 374.961700,112.999969 371.659149,112.999969 
	C367.731873,102.803192 363.862213,92.755951 359.992523,82.708710 
	C359.548828,82.755440 359.105133,82.802177 358.661438,82.848915 
	C355.199707,91.679207 351.479706,100.421356 348.419586,109.388710 
	C347.381805,112.429832 346.102325,113.228012 343.233826,113.045593 
	C340.085876,112.845398 336.915375,113.000000 333.687225,113.000000 
	C331.587708,107.602180 329.518738,102.282936 327.241577,96.617035 
z"/>
<path fill="#000000" opacity="1.000000" stroke="none" 
	d="
M434.366333,62.889084 
	C432.703308,64.006767 431.434204,65.014412 430.028625,66.130417 
	C425.345154,63.361656 420.674896,60.600708 415.981079,57.825832 
	C422.821808,49.181961 431.399445,45.695057 442.194885,45.825893 
	C451.697266,45.941059 460.598206,46.676842 466.944641,54.637054 
	C468.854034,57.031990 470.756134,60.268188 470.820892,63.160217 
	C471.188934,79.596008 470.999237,96.044296 470.999237,112.442604 
	C459.251648,114.303314 451.821350,113.443359 450.419556,109.823730 
	C440.731873,115.163116 430.831573,115.409660 420.677124,111.051315 
	C415.919373,109.009277 411.092377,102.638466 411.000000,97.448151 
	C410.697388,80.437935 421.061646,70.008377 438.277405,70.000290 
	C442.422272,69.998337 446.567108,70.000000 450.646973,70.000000 
	C452.174072,62.841331 443.201569,60.340233 434.366333,62.889084 
M446.937347,96.578796 
	C451.268463,93.530945 450.031952,89.291412 449.684692,84.533897 
	C444.997986,85.051758 440.605713,85.201019 436.378815,86.115112 
	C433.242493,86.793343 431.854889,89.255493 431.913879,92.735527 
	C431.972229,96.175774 433.386017,98.183815 436.679443,98.157646 
	C439.867249,98.132317 443.049438,97.397652 446.937347,96.578796 
z"/>
<path fill="#000000" opacity="1.000000" stroke="none" 
	d="
M698.002441,70.000000 
	C701.260010,70.000000 704.036682,70.000000 706.813354,70.000000 
	C707.150513,69.540962 707.487732,69.081917 707.824890,68.622879 
	C705.875916,66.575836 704.264709,63.912262 701.903076,62.618168 
	C697.784546,60.361378 690.615784,62.241734 685.990906,66.040588 
	C681.174744,63.263935 676.317566,60.463650 671.165344,57.493252 
	C677.290283,50.334736 684.924622,46.150440 694.445801,46.054367 
	C702.214050,45.975979 710.078979,44.975594 717.302612,49.628201 
	C722.934082,53.255291 726.676147,58.122036 726.853760,64.522255 
	C727.296570,80.472290 726.999634,96.442856 726.999634,112.702194 
	C720.399658,112.702194 713.987366,112.702194 707.216736,112.702194 
	C707.090942,111.720451 706.942810,110.564545 706.749084,109.052879 
	C697.721619,115.189377 688.371704,115.254295 678.688843,112.013313 
	C672.060547,109.794739 667.575989,103.115448 666.906128,96.253387 
	C665.154846,78.313972 680.174927,71.413269 693.029175,70.021721 
	C694.510071,69.861404 696.023315,70.000000 698.002441,70.000000 
M700.553345,85.000008 
	C697.367249,85.492455 693.894531,85.375542 691.095825,86.691711 
	C689.232849,87.567848 687.334717,90.471321 687.298279,92.500534 
	C687.265869,94.304909 689.407227,96.769005 691.234924,97.861549 
	C695.512878,100.418724 699.694946,98.627930 703.353088,96.047028 
	C707.155334,93.364464 707.618530,89.460266 706.638245,85.000000 
	C704.782104,85.000000 703.135864,85.000000 700.553345,85.000008 
z"/>
<path fill="#000000" opacity="1.000000" stroke="none" 
	d="
M558.000000,65.137268 
	C558.565369,55.969906 566.814209,47.584641 576.383179,46.011086 
	C589.221191,43.899952 599.843872,47.705997 609.765137,58.564770 
	C607.612427,60.446270 605.274963,62.261272 603.218201,64.352425 
	C601.259338,66.344070 599.593445,68.623901 597.566040,71.056213 
	C592.711182,65.767059 588.245117,61.836273 581.621033,63.074333 
	C579.995117,63.378220 577.631653,64.275497 577.197021,65.475700 
	C576.269226,68.037666 577.532288,70.158005 580.488953,71.025146 
	C585.852295,72.598175 591.242065,74.130463 596.488647,76.042473 
	C609.519165,80.791122 613.656494,92.093330 607.766479,102.283157 
	C603.765686,109.204666 596.867554,113.012184 588.969238,113.909538 
	C576.031067,115.379486 565.090637,110.865723 556.454224,101.983841 
	C560.715332,97.641266 564.888489,93.388260 569.225159,88.968681 
	C573.983582,93.114555 578.728333,98.114891 585.998230,96.845985 
	C587.979492,96.500168 589.633423,94.279251 591.437622,92.918892 
	C590.039368,91.525734 588.883911,89.513092 587.198547,88.852638 
	C581.573792,86.648407 575.733459,85.002022 570.023560,83.005249 
	C562.340271,80.318405 558.013916,73.955002 558.000000,65.137268 
z"/>
<path fill="#000000" opacity="1.000000" stroke="none" 
	d="
M268.402008,83.778854 
	C261.378235,80.140427 256.509430,75.514763 255.934265,67.327324 
	C255.290421,58.162495 261.812286,50.496525 271.075409,46.993046 
	C285.717072,41.455315 296.600433,48.406818 306.794678,56.876549 
	C302.293823,61.341606 298.059723,65.542007 293.603973,69.962318 
	C289.791809,66.130463 285.662018,61.813442 279.172455,63.093189 
	C277.344238,63.453712 275.738190,64.940918 274.030243,65.911354 
	C275.073669,67.493942 275.768372,69.865120 277.226501,70.509918 
	C281.448639,72.376999 286.043579,73.379059 290.366425,75.046761 
	C294.226135,76.535797 298.131226,78.111740 301.640717,80.262207 
	C309.281769,84.944321 307.878357,93.016548 306.618439,99.553261 
	C305.459839,105.564095 299.986694,109.820496 293.843933,111.958153 
	C278.294647,117.369255 265.257477,112.966949 253.879776,101.407494 
	C257.074707,98.282433 260.285980,95.362030 263.230896,92.194008 
	C265.784912,89.446503 267.892578,89.126846 270.625092,92.050270 
	C274.263702,95.943069 278.896606,98.140160 284.261566,96.855888 
	C286.360504,96.353455 288.084229,94.283447 289.978821,92.927383 
	C288.399048,91.615517 287.018646,89.754921 285.202026,89.094933 
	C279.806427,87.134674 274.239136,85.647057 268.402008,83.778854 
z"/>
<path fill="#000000" opacity="1.000000" stroke="none" 
	d="
M650.109741,97.000008 
	C652.818909,96.505295 655.098999,96.010567 657.993164,95.382614 
	C657.993164,99.859451 658.478516,104.651382 657.858093,109.295593 
	C657.224426,114.039223 652.158813,113.456825 649.244873,113.777351 
	C631.315735,115.749451 623.131897,107.294579 622.093140,90.120857 
	C621.561768,81.336029 622.000000,72.492561 622.000000,63.300816 
	C619.799500,63.300816 617.728210,63.300816 615.325684,63.300816 
	C615.325684,57.391666 615.325684,51.850193 615.325684,46.119595 
	C617.413940,46.119595 619.375549,46.119595 621.720947,46.119595 
	C621.720947,39.866131 621.720947,33.776695 621.720947,27.344795 
	C628.491455,27.344795 634.899963,27.344795 641.709167,27.344795 
	C641.709167,33.162552 641.709167,39.237755 641.709167,45.710350 
	C647.162720,45.710350 652.239441,45.710350 657.658081,45.710350 
	C657.658081,51.494827 657.658081,56.904354 657.658081,62.714741 
	C652.834473,62.714741 647.756104,62.714741 642.012573,62.714741 
	C642.012573,72.343521 641.611328,81.618118 642.219910,90.825974 
	C642.447449,94.268478 645.030457,97.553329 650.109741,97.000008 
z"/>
<path fill="#FFFFFF" opacity="1.000000" stroke="none" 
	d="
M125.127098,80.008545 
	C129.308762,80.078743 131.466873,82.044830 131.245712,85.777260 
	C131.136429,87.621597 130.341064,90.539818 129.145370,90.962761 
	C126.959633,91.735893 124.022713,91.578026 121.834824,90.710075 
	C120.498543,90.179955 118.828072,87.021652 119.315010,86.056465 
	C120.490952,83.725571 122.845123,81.989120 125.127098,80.008545 
z"/>
<path fill="#FFFFFF" opacity="1.000000" stroke="none" 
	d="
M93.001801,86.003815 
	C93.407211,81.626846 95.637810,79.541565 99.573967,80.104355 
	C103.049118,80.601242 105.593330,83.093750 104.756874,86.508049 
	C104.238960,88.622078 101.667107,91.155563 99.531448,91.747246 
	C95.768501,92.789780 93.414185,90.378593 93.001801,86.003815 
z"/>
<path fill="#FFFFFF" opacity="1.000000" stroke="none" 
	d="
M75.978142,81.833694 
	C78.811058,84.453178 78.713020,87.624809 76.239723,89.936790 
	C74.759422,91.320557 71.323357,92.346687 69.834274,91.546448 
	C67.982178,90.551109 66.470001,87.603363 66.176689,85.323112 
	C65.682388,81.480492 69.092323,79.727707 74.931602,80.931610 
	C75.137466,81.514069 75.486084,81.862488 75.486084,81.862488 
	C75.486084,81.862488 75.978142,81.833694 75.978142,81.833694 
z"/>
<path fill="#E131B0" opacity="1.000000" stroke="none" 
	d="
M75.886185,81.659164 
	C75.978142,81.833694 75.486084,81.862488 75.486084,81.862488 
	C75.486084,81.862488 75.137466,81.514069 75.151886,81.268036 
	C75.422302,81.112846 75.631607,81.267059 75.886185,81.659164 
z"/>
<path fill="#FFFFFF" opacity="1.000000" stroke="none" 
	d="
M507.797699,95.295334 
	C501.540649,88.155319 500.265137,80.176773 503.174133,71.867584 
	C505.759064,64.484070 510.846588,60.503841 517.013550,61.017525 
	C523.430420,61.552025 528.457703,67.281357 529.831421,74.113930 
	C530.846008,79.160133 530.968384,84.373436 528.236389,89.418930 
	C523.021362,99.050354 517.514465,100.926826 507.797699,95.295334 
z"/>
<path fill="#FFFFFF" opacity="1.000000" stroke="none" 
	d="
M907.000000,78.150459 
	C907.188416,83.394936 906.402466,87.732506 903.718567,92.038498 
	C900.770996,96.767525 896.425171,98.981918 891.725647,98.718178 
	C885.787415,98.384911 881.307556,93.954346 879.414673,88.589348 
	C877.076294,81.961594 876.952759,75.042381 880.865906,68.407768 
	C886.335999,59.133411 897.895752,58.255070 903.572693,67.305984 
	C905.454102,70.305550 905.898621,74.206345 907.000000,78.150459 
z"/>
<path fill="#FFFFFF" opacity="1.000000" stroke="none" 
	d="
M446.585724,96.776672 
	C443.049438,97.397652 439.867249,98.132317 436.679443,98.157646 
	C433.386017,98.183815 431.972229,96.175774 431.913879,92.735527 
	C431.854889,89.255493 433.242493,86.793343 436.378815,86.115112 
	C440.605713,85.201019 444.997986,85.051758 449.684692,84.533897 
	C450.031952,89.291412 451.268463,93.530945 446.585724,96.776672 
z"/>
<path fill="#FFFFFF" opacity="1.000000" stroke="none" 
	d="
M701.021484,85.000000 
	C703.135864,85.000000 704.782104,85.000000 706.638245,85.000000 
	C707.618530,89.460266 707.155334,93.364464 703.353088,96.047028 
	C699.694946,98.627930 695.512878,100.418724 691.234924,97.861549 
	C689.407227,96.769005 687.265869,94.304909 687.298279,92.500534 
	C687.334717,90.471321 689.232849,87.567848 691.095825,86.691711 
	C693.894531,85.375542 697.367249,85.492455 701.021484,85.000000 
z"/>
</svg>