<svg version="1.1" id="Layer_1" xmlns="http://www.w3.org/2000/svg" xmlns:xlink="http://www.w3.org/1999/xlink" x="0px" y="0px"
	 width="100%" viewBox="0 0 931 159" enable-background="new 0 0 931 159" xml:space="preserve">
<path fill="#FEFEFE" opacity="1.000000" stroke="none" 
	d="
M46.000000,160.000000 
	C31.003126,160.000000 16.006252,160.000000 1.007033,160.000000 
	C1.004689,107.014168 1.004689,54.028339 1.004689,1.021255 
	C311.254486,1.021255 621.508972,1.021255 931.881714,1.021255 
	C931.881714,53.909885 931.881714,106.820122 931.881714,160.000000 
	C674.643433,160.000000 417.286713,160.000000 159.666107,159.700485 
	C164.638565,156.626801 169.985077,154.039261 175.083267,151.030869 
	C181.360367,147.326813 183.316833,140.406509 180.088120,133.773788 
	C178.061066,129.609619 175.990921,125.398659 173.345016,121.626060 
	C171.408112,118.864388 171.673630,116.810013 172.887436,113.931343 
	C174.808426,109.375488 176.668411,104.626740 177.405243,99.784775 
	C178.174545,94.729393 179.449387,92.073853 185.320206,92.631325 
	C189.333939,93.012451 192.285522,90.444832 192.247421,85.880692 
	C192.208893,81.265594 189.108719,79.619339 185.112961,79.198181 
	C183.193497,78.995857 181.235046,79.163315 179.386475,79.163315 
	C178.857178,76.618736 178.497620,74.665756 178.042374,72.735336 
	C171.564117,45.264893 154.830521,26.970896 127.265274,21.265408 
	C112.850456,18.281816 97.473694,18.749203 82.622078,19.486032 
	C72.430878,19.991648 62.720177,21.361912 53.626686,15.431191 
	C52.294918,14.562621 50.474995,14.439770 48.878513,13.980307 
	C38.898251,11.108011 36.883701,12.276484 34.359394,22.429552 
	C34.159630,23.233034 34.091629,24.068483 33.942020,24.885344 
	C31.886038,36.110718 32.821011,48.154099 24.949139,57.794933 
	C24.753332,58.034740 24.726603,58.413139 24.622883,58.727520 
	C23.315058,62.691566 21.040747,65.292183 16.407879,65.084602 
	C14.781683,65.011734 13.125755,65.538643 11.487321,65.814911 
	C6.997165,66.572044 4.950174,69.264435 4.984039,73.785194 
	C5.043911,81.777664 5.015768,89.770973 4.993521,97.763840 
	C4.981487,102.087242 6.649542,105.067513 11.104458,106.235672 
	C14.140165,107.031693 17.139997,108.026474 20.058599,109.178764 
	C21.351826,109.689339 22.876225,110.555275 23.488894,111.693993 
	C27.105907,118.416588 31.695839,125.198975 24.737854,132.591202 
	C24.626474,132.709518 24.554331,132.869492 24.481350,133.018570 
	C21.087776,139.951614 22.606447,146.738678 29.118074,150.841522 
	C34.523117,154.247101 40.356415,156.973007 46.000000,160.000000 
M780.924805,62.479961 
	C782.024963,65.531342 783.964111,68.552071 784.076904,71.639503 
	C784.514526,83.620445 784.372620,95.622581 784.442932,107.616852 
	C784.453125,109.350807 784.444336,111.084869 784.444336,112.659096 
	C791.653503,112.659096 798.064880,112.659096 804.752136,112.659096 
	C804.752136,103.341316 804.733032,94.367081 804.759949,85.392982 
	C804.773926,80.729118 804.638062,76.048393 804.981567,71.405746 
	C805.501099,64.383369 810.129028,60.326698 817.224609,60.223713 
	C823.455078,60.133282 826.778564,63.206776 827.634338,70.497581 
	C828.098083,74.448662 827.940857,78.479675 827.955444,82.475029 
	C827.992188,92.570244 827.967651,102.665688 827.967651,112.723160 
	C834.976807,112.723160 841.387817,112.723160 848.068604,112.723160 
	C848.068604,105.138687 848.204468,97.830460 848.034241,90.529358 
	C847.821045,81.385635 847.839600,72.195595 846.859619,63.122593 
	C845.949707,54.698608 841.218689,48.594841 832.577515,46.471912 
	C820.359680,43.470291 809.232544,45.787228 799.040955,53.943218 
	C794.494080,48.192539 788.061584,45.829529 780.844482,45.286526 
	C773.583496,44.740215 767.252197,47.383766 761.240967,51.752445 
	C761.070312,49.685238 760.937988,48.083214 760.801331,46.427845 
	C754.218262,46.427845 747.796448,46.427845 741.327148,46.427845 
	C741.327148,68.745193 741.327148,90.789680 741.327148,112.667038 
	C748.071960,112.667038 754.479675,112.667038 761.059326,112.667038 
	C761.059326,99.510551 760.908813,86.689636 761.104309,73.874001 
	C761.278137,62.480053 769.780762,57.338097 780.924805,62.479961 
M406.623901,56.152649 
	C407.782990,52.949486 408.942078,49.746323 410.241150,46.156269 
	C404.231232,46.156269 398.901367,46.316204 393.587708,46.091900 
	C390.734039,45.971439 389.584686,46.965981 388.768829,49.701019 
	C385.561462,60.453285 382.053619,71.115906 378.272186,83.024757 
	C374.155029,69.966026 370.395599,58.041958 366.648254,46.156181 
	C363.241669,46.156181 360.354706,46.526489 357.603302,46.073463 
	C352.927155,45.303528 351.315948,47.584362 350.155060,51.639309 
	C347.265076,61.733818 343.982025,71.715805 340.501984,82.881348 
	C336.339661,69.860626 332.563019,58.046406 328.831116,46.372169 
	C321.971924,46.372169 315.537109,46.372169 308.989777,46.372169 
	C308.989777,47.073021 308.848755,47.611351 309.010040,48.034435 
	C316.994293,68.977531 324.974335,89.922470 333.104248,110.809052 
	C333.493652,111.809486 335.148438,112.606895 336.363312,112.920616 
	C337.768616,113.283524 339.366241,112.823479 340.833405,113.039558 
	C345.434021,113.717079 347.843018,112.165955 349.341797,107.387756 
	C352.056427,98.733345 355.704071,90.371613 359.345764,80.888924 
	C363.242004,91.013580 366.863922,100.052673 370.162201,109.208344 
	C371.245972,112.216774 372.764313,113.524277 375.942657,113.043571 
	C377.408112,112.821930 378.962524,112.822090 380.428192,113.042984 
	C383.761597,113.545387 385.301758,112.278770 386.502533,109.011681 
	C392.917328,91.558640 399.645660,74.220840 406.623901,56.152649 
M911.183044,110.855301 
	C927.783569,101.586342 933.878540,80.642357 925.051208,63.316345 
	C921.173828,55.705921 915.260559,50.179523 907.269775,47.442410 
	C898.413086,44.408691 889.423706,43.497650 882.255737,49.446560 
	C880.863708,48.055969 879.949402,46.332165 878.961975,46.289207 
	C873.049744,46.032028 867.120789,46.161747 861.204834,46.161747 
	C861.204834,79.247475 861.204834,111.647736 861.204834,144.279022 
	C867.830322,144.279022 874.246094,144.279022 881.024780,144.279022 
	C881.024780,132.639084 881.024780,121.240433 881.024780,109.691284 
	C893.794373,115.179840 899.840332,115.442863 911.183044,110.855301 
M539.232422,107.804466 
	C552.950439,96.223618 556.174011,75.935181 546.712708,60.769726 
	C542.588379,54.158825 536.838501,49.460079 529.457397,47.127926 
	C520.799683,44.392422 512.172852,43.871548 504.945709,49.673492 
	C503.953461,48.261822 503.256775,46.347801 502.482941,46.316082 
	C496.403351,46.066845 490.308990,46.177837 484.362549,46.177837 
	C484.362549,79.327744 484.362549,111.736488 484.362549,144.170135 
	C491.068573,144.170135 497.459259,144.170135 504.311646,144.170135 
	C504.311646,132.470535 504.311646,121.123085 504.311646,109.442764 
	C516.398987,116.378693 527.657227,115.239372 539.232422,107.804466 
M445.401001,69.993279 
	C438.261353,71.199677 430.791443,71.469818 424.063293,73.842903 
	C415.093445,77.006668 410.441528,86.207321 411.382416,95.466484 
	C412.433807,105.812935 416.916779,110.710739 427.843903,113.226433 
	C435.979980,115.099571 443.697906,114.010162 450.383972,109.637711 
	C451.563446,110.896637 452.505280,112.804771 453.538605,112.855690 
	C459.454834,113.147186 465.392822,112.997375 471.572235,112.997375 
	C471.572235,96.947739 471.858185,81.483818 471.468414,66.036942 
	C471.221649,56.258133 465.308746,50.083508 456.298187,47.136436 
	C452.563141,45.914825 448.460815,45.355846 444.517670,45.318356 
	C433.325470,45.211941 423.494537,48.620235 415.765778,57.634529 
	C420.912170,60.560368 425.655884,63.257267 430.306824,65.901428 
	C435.544220,61.920567 442.684021,60.325974 446.766937,62.857719 
	C448.912933,64.188431 450.237061,66.844589 451.932343,68.902222 
	C451.562927,69.265907 451.193542,69.629601 450.824127,69.993286 
	C449.334137,69.993286 447.844116,69.993286 445.401001,69.993279 
M719.717468,50.696110 
	C704.548401,41.202374 682.231567,44.500610 672.433960,57.759758 
	C676.470520,60.087601 680.493713,62.415539 684.526855,64.726105 
	C685.220642,65.123589 685.956726,65.447266 686.588745,65.762794 
	C696.725708,58.798454 706.297180,60.673954 707.596985,69.996979 
	C703.749023,69.996979 699.855286,69.503860 696.141663,70.111702 
	C690.466797,71.040558 684.522217,71.889854 679.404907,74.291557 
	C671.628113,77.941444 667.679932,84.707512 667.782043,93.634285 
	C667.868591,101.195587 670.155396,107.675789 677.322083,110.906525 
	C687.049377,115.291595 696.936951,115.719711 706.405151,109.720139 
	C706.779541,109.482941 707.278687,109.442810 707.755981,109.299995 
	C707.917297,110.542862 708.061646,111.654793 708.206726,112.772247 
	C714.775208,112.772247 721.203186,112.772247 727.888184,112.772247 
	C727.888184,96.770920 728.070251,80.995201 727.791626,65.227631 
	C727.691040,59.535931 724.907715,54.711136 719.717468,50.696110 
M610.507629,97.636856 
	C612.166748,87.668259 609.539368,82.036423 600.595093,77.733017 
	C596.589844,75.805946 592.207092,74.660271 587.987976,73.181946 
	C585.330750,72.250900 582.514587,71.634239 580.055542,70.335526 
	C578.839661,69.693390 577.524109,67.772461 577.616028,66.531052 
	C577.709351,65.271873 579.284241,63.488892 580.564331,63.099625 
	C582.485352,62.515465 585.016846,62.286816 586.752747,63.080051 
	C590.710266,64.888474 594.342163,67.409561 597.884521,69.509583 
	C601.873047,65.602287 606.011719,61.547882 610.358032,57.290089 
	C608.577026,55.758625 606.898376,54.143761 605.050476,52.753845 
	C592.661316,43.435150 577.687256,42.809612 566.604980,51.089291 
	C556.524536,58.620491 556.283264,73.178314 566.451721,80.547607 
	C569.873047,83.027092 574.046509,84.599777 578.060181,86.092316 
	C581.775940,87.474052 585.809204,87.991730 589.551941,89.316116 
	C590.873657,89.783836 592.546265,91.476303 592.598572,92.673393 
	C592.647888,93.801979 590.845459,95.938316 589.737732,96.020782 
	C586.082397,96.292961 582.114624,96.590927 578.757446,95.443512 
	C575.493225,94.327881 572.833313,91.443909 570.002686,89.404587 
	C565.977051,93.659180 561.933228,97.933037 557.747864,102.356476 
	C566.631653,111.067261 577.420288,115.797264 590.407654,113.602859 
	C599.501465,112.066338 607.205566,108.142166 610.507629,97.636856 
M290.162231,66.200211 
	C291.628693,67.504761 293.095154,68.809311 293.993500,69.608452 
	C298.355713,65.333405 302.565552,61.207726 306.769287,57.088001 
	C294.359741,44.535858 278.238861,41.712936 265.378601,49.884342 
	C258.734863,54.105774 255.440323,60.011169 256.028503,67.899330 
	C256.583191,75.337730 260.932251,80.268501 267.440613,82.995506 
	C273.223358,85.418488 279.439972,86.788467 285.319946,89.007782 
	C287.043182,89.658188 288.270477,91.622437 289.725098,92.984505 
	C288.145752,94.280945 286.643158,96.534019 284.970520,96.668251 
	C281.804962,96.922272 278.285309,96.565147 275.388947,95.338051 
	C272.290009,94.025116 269.740295,91.415878 266.843811,89.294022 
	C262.821411,93.451523 258.717285,97.693504 254.597763,101.951370 
	C264.707520,113.628006 282.246918,117.605850 296.209778,110.873970 
	C303.259888,107.474884 307.706238,101.827690 307.974762,93.675522 
	C308.236542,85.726913 304.141846,80.445007 297.068268,77.402199 
	C293.728973,75.965752 290.204193,74.956116 286.750885,73.790344 
	C283.605682,72.728561 280.306671,71.997963 277.349915,70.557884 
	C275.995453,69.898209 274.432922,67.811394 274.546417,66.509666 
	C274.661743,65.186790 276.866333,62.882099 277.908173,63.010979 
	C281.841217,63.497524 285.673523,64.798965 290.162231,66.200211 
M629.395203,108.092117 
	C637.583191,115.198029 646.783386,115.522392 656.442200,111.919189 
	C657.523804,111.515694 658.821106,109.956558 658.886658,108.865326 
	C659.160461,104.309967 659.001953,99.728622 659.001953,94.825165 
	C656.782104,95.728668 655.185120,96.568787 653.485596,97.035751 
	C647.776855,98.604263 644.180176,96.943710 643.798767,91.263222 
	C643.170227,81.902664 643.628174,72.469147 643.628174,62.713181 
	C648.701294,62.713181 653.640564,62.713181 658.596924,62.713181 
	C658.596924,56.996593 658.596924,51.643063 658.596924,45.921673 
	C653.269897,45.921673 648.346252,45.921673 643.017212,45.921673 
	C643.017212,39.475674 643.017212,33.399807 643.017212,27.270840 
	C636.190613,27.270840 629.796326,27.270840 623.004517,27.270840 
	C623.004517,33.622982 623.004517,39.710560 623.004517,46.348602 
	C620.403931,46.348602 618.199646,46.348602 616.157104,46.348602 
	C616.157104,52.147594 616.157104,57.375786 616.157104,63.000809 
	C618.623779,63.000809 620.695984,63.000809 623.100159,63.000809 
	C623.100159,71.373878 622.939697,79.341255 623.147705,87.298996 
	C623.335693,94.489906 624.175049,101.598740 629.395203,108.092117 
z"/>
<path fill="#FF2F64" opacity="1.000000" stroke="none" 
	d="
M46.375000,160.000000 
	C40.356415,156.973007 34.523117,154.247101 29.118074,150.841522 
	C22.606447,146.738678 21.087776,139.951614 24.481350,133.018570 
	C24.554331,132.869492 24.626474,132.709518 24.737854,132.591202 
	C31.695839,125.198975 27.105907,118.416588 23.488894,111.693993 
	C22.876225,110.555275 21.351826,109.689339 20.058599,109.178764 
	C17.139997,108.026474 14.140165,107.031693 11.104458,106.235672 
	C6.649542,105.067513 4.981487,102.087242 4.993521,97.763840 
	C5.015768,89.770973 5.043911,81.777664 4.984039,73.785194 
	C4.950174,69.264435 6.997165,66.572044 11.487321,65.814911 
	C13.125755,65.538643 14.781683,65.011734 16.407879,65.084602 
	C21.040747,65.292183 23.315058,62.691566 24.622883,58.727520 
	C24.726603,58.413139 24.753332,58.034740 24.949139,57.794933 
	C32.821011,48.154099 31.886038,36.110718 33.942020,24.885344 
	C34.091629,24.068483 34.159630,23.233034 34.359394,22.429552 
	C36.883701,12.276484 38.898251,11.108011 48.878513,13.980307 
	C50.474995,14.439770 52.294918,14.562621 53.626686,15.431191 
	C62.720177,21.361912 72.430878,19.991648 82.622078,19.486032 
	C97.473694,18.749203 112.850456,18.281816 127.265274,21.265408 
	C154.830521,26.970896 171.564117,45.264893 178.042374,72.735336 
	C178.497620,74.665756 178.857178,76.618736 179.386475,79.163315 
	C181.235046,79.163315 183.193497,78.995857 185.112961,79.198181 
	C189.108719,79.619339 192.208893,81.265594 192.247421,85.880692 
	C192.285522,90.444832 189.333939,93.012451 185.320206,92.631325 
	C179.449387,92.073853 178.174545,94.729393 177.405243,99.784775 
	C176.668411,104.626740 174.808426,109.375488 172.887436,113.931343 
	C171.673630,116.810013 171.408112,118.864388 173.345016,121.626060 
	C175.990921,125.398659 178.061066,129.609619 180.088120,133.773788 
	C183.316833,140.406509 181.360367,147.326813 175.083267,151.030869 
	C169.985077,154.039261 164.638565,156.626801 159.201080,159.700485 
	C157.611115,160.000000 156.222214,160.000000 154.231659,159.702301 
	C146.643219,157.912415 144.641418,151.275955 141.291565,146.897934 
	C135.440231,148.631744 130.291000,151.059830 124.956207,151.578094 
	C104.627838,153.552948 84.240997,155.070587 64.097565,149.653885 
	C63.037022,149.368698 60.914520,149.953125 60.528439,150.741196 
	C58.098434,155.701279 54.063072,158.437164 49.000000,160.000000 
	C48.250000,160.000000 47.500000,160.000000 46.375000,160.000000 
M66.183762,82.867874 
	C64.711418,85.933708 64.935593,88.981651 67.777374,90.831001 
	C69.476212,91.936562 72.486115,92.733658 74.030128,91.947601 
	C76.049385,90.919594 78.212105,88.291344 78.425636,86.162224 
	C78.614571,84.278267 76.663857,81.485435 74.864044,80.252716 
	C71.872307,78.203590 68.860344,79.454781 66.183762,82.867874 
M119.559433,88.650772 
	C122.441971,92.691010 125.892380,93.800110 129.156128,91.735512 
	C132.186981,89.818245 133.432419,85.372070 130.872543,82.649628 
	C129.269333,80.944611 125.996910,79.627441 123.750618,79.967430 
	C119.714058,80.578400 118.409714,83.960190 119.559433,88.650772 
M93.405441,82.114426 
	C91.339447,87.138168 92.247063,90.410271 96.200928,92.086258 
	C99.960510,93.679878 103.197403,92.329636 104.403786,88.917053 
	C105.160965,86.775146 104.550903,83.200020 103.116074,81.441154 
	C100.542892,78.286880 96.949051,78.903893 93.405441,82.114426 
z"/>
<path fill="#FFFEFE" opacity="1.000000" stroke="none" 
	d="
M49.468658,160.000000 
	C54.063072,158.437164 58.098434,155.701279 60.528439,150.741196 
	C60.914520,149.953125 63.037022,149.368698 64.097565,149.653885 
	C84.240997,155.070587 104.627838,153.552948 124.956207,151.578094 
	C130.291000,151.059830 135.440231,148.631744 141.291565,146.897934 
	C144.641418,151.275955 146.643219,157.912415 153.815002,159.702301 
	C119.312439,160.000000 84.624878,160.000000 49.468658,160.000000 
z"/>
<path fill="#282D37" opacity="1.000000" stroke="none" 
	d="
M780.615723,62.235519 
	C769.780762,57.338097 761.278137,62.480053 761.104309,73.874001 
	C760.908813,86.689636 761.059326,99.510551 761.059326,112.667038 
	C754.479675,112.667038 748.071960,112.667038 741.327148,112.667038 
	C741.327148,90.789680 741.327148,68.745193 741.327148,46.427845 
	C747.796448,46.427845 754.218262,46.427845 760.801331,46.427845 
	C760.937988,48.083214 761.070312,49.685238 761.240967,51.752445 
	C767.252197,47.383766 773.583496,44.740215 780.844482,45.286526 
	C788.061584,45.829529 794.494080,48.192539 799.040955,53.943218 
	C809.232544,45.787228 820.359680,43.470291 832.577515,46.471912 
	C841.218689,48.594841 845.949707,54.698608 846.859619,63.122593 
	C847.839600,72.195595 847.821045,81.385635 848.034241,90.529358 
	C848.204468,97.830460 848.068604,105.138687 848.068604,112.723160 
	C841.387817,112.723160 834.976807,112.723160 827.967651,112.723160 
	C827.967651,102.665688 827.992188,92.570244 827.955444,82.475029 
	C827.940857,78.479675 828.098083,74.448662 827.634338,70.497581 
	C826.778564,63.206776 823.455078,60.133282 817.224609,60.223713 
	C810.129028,60.326698 805.501099,64.383369 804.981567,71.405746 
	C804.638062,76.048393 804.773926,80.729118 804.759949,85.392982 
	C804.733032,94.367081 804.752136,103.341316 804.752136,112.659096 
	C798.064880,112.659096 791.653503,112.659096 784.444336,112.659096 
	C784.444336,111.084869 784.453125,109.350807 784.442932,107.616852 
	C784.372620,95.622581 784.514526,83.620445 784.076904,71.639503 
	C783.964111,68.552071 782.024963,65.531342 780.615723,62.235519 
z"/>
<path fill="#282D37" opacity="1.000000" stroke="none" 
	d="
M406.444733,56.497917 
	C399.645660,74.220840 392.917328,91.558640 386.502533,109.011681 
	C385.301758,112.278770 383.761597,113.545387 380.428192,113.042984 
	C378.962524,112.822090 377.408112,112.821930 375.942657,113.043571 
	C372.764313,113.524277 371.245972,112.216774 370.162201,109.208344 
	C366.863922,100.052673 363.242004,91.013580 359.345764,80.888924 
	C355.704071,90.371613 352.056427,98.733345 349.341797,107.387756 
	C347.843018,112.165955 345.434021,113.717079 340.833405,113.039558 
	C339.366241,112.823479 337.768616,113.283524 336.363312,112.920616 
	C335.148438,112.606895 333.493652,111.809486 333.104248,110.809052 
	C324.974335,89.922470 316.994293,68.977531 309.010040,48.034435 
	C308.848755,47.611351 308.989777,47.073021 308.989777,46.372169 
	C315.537109,46.372169 321.971924,46.372169 328.831116,46.372169 
	C332.563019,58.046406 336.339661,69.860626 340.501984,82.881348 
	C343.982025,71.715805 347.265076,61.733818 350.155060,51.639309 
	C351.315948,47.584362 352.927155,45.303528 357.603302,46.073463 
	C360.354706,46.526489 363.241669,46.156181 366.648254,46.156181 
	C370.395599,58.041958 374.155029,69.966026 378.272186,83.024757 
	C382.053619,71.115906 385.561462,60.453285 388.768829,49.701019 
	C389.584686,46.965981 390.734039,45.971439 393.587708,46.091900 
	C398.901367,46.316204 404.231232,46.156269 410.241150,46.156269 
	C408.942078,49.746323 407.782990,52.949486 406.444733,56.497917 
z"/>
<path fill="#282D37" opacity="1.000000" stroke="none" 
	d="
M910.822510,110.983780 
	C899.840332,115.442863 893.794373,115.179840 881.024780,109.691284 
	C881.024780,121.240433 881.024780,132.639084 881.024780,144.279022 
	C874.246094,144.279022 867.830322,144.279022 861.204834,144.279022 
	C861.204834,111.647736 861.204834,79.247475 861.204834,46.161747 
	C867.120789,46.161747 873.049744,46.032028 878.961975,46.289207 
	C879.949402,46.332165 880.863708,48.055969 882.255737,49.446560 
	C889.423706,43.497650 898.413086,44.408691 907.269775,47.442410 
	C915.260559,50.179523 921.173828,55.705921 925.051208,63.316345 
	C933.878540,80.642357 927.783569,101.586342 910.822510,110.983780 
M891.901001,98.907928 
	C895.006531,98.020164 898.666809,97.895164 901.120117,96.110672 
	C910.982666,88.936798 911.331116,72.002747 902.155945,63.944027 
	C897.257568,59.641666 890.378174,59.735680 885.275146,63.788261 
	C875.548828,71.512497 875.547424,93.976334 891.901001,98.907928 
z"/>
<path fill="#282D37" opacity="1.000000" stroke="none" 
	d="
M538.938721,108.018745 
	C527.657227,115.239372 516.398987,116.378693 504.311646,109.442764 
	C504.311646,121.123085 504.311646,132.470535 504.311646,144.170135 
	C497.459259,144.170135 491.068573,144.170135 484.362549,144.170135 
	C484.362549,111.736488 484.362549,79.327744 484.362549,46.177837 
	C490.308990,46.177837 496.403351,46.066845 502.482941,46.316082 
	C503.256775,46.347801 503.953461,48.261822 504.945709,49.673492 
	C512.172852,43.871548 520.799683,44.392422 529.457397,47.127926 
	C536.838501,49.460079 542.588379,54.158825 546.712708,60.769726 
	C556.174011,75.935181 552.950439,96.223618 538.938721,108.018745 
M509.297241,96.380486 
	C515.936829,100.465927 521.482300,99.725578 526.608032,94.069473 
	C533.687073,86.257843 533.631104,73.223152 526.484192,65.239525 
	C521.234741,59.375515 513.348999,59.314724 507.456879,64.591530 
	C500.460297,70.857452 498.713989,88.217918 509.297241,96.380486 
z"/>
<path fill="#292D37" opacity="1.000000" stroke="none" 
	d="
M445.877563,69.993286 
	C447.844116,69.993286 449.334137,69.993286 450.824127,69.993286 
	C451.193542,69.629601 451.562927,69.265907 451.932343,68.902222 
	C450.237061,66.844589 448.912933,64.188431 446.766937,62.857719 
	C442.684021,60.325974 435.544220,61.920567 430.306824,65.901428 
	C425.655884,63.257267 420.912170,60.560368 415.765778,57.634529 
	C423.494537,48.620235 433.325470,45.211941 444.517670,45.318356 
	C448.460815,45.355846 452.563141,45.914825 456.298187,47.136436 
	C465.308746,50.083508 471.221649,56.258133 471.468414,66.036942 
	C471.858185,81.483818 471.572235,96.947739 471.572235,112.997375 
	C465.392822,112.997375 459.454834,113.147186 453.538605,112.855690 
	C452.505280,112.804771 451.563446,110.896637 450.383972,109.637711 
	C443.697906,114.010162 435.979980,115.099571 427.843903,113.226433 
	C416.916779,110.710739 412.433807,105.812935 411.382416,95.466484 
	C410.441528,86.207321 415.093445,77.006668 424.063293,73.842903 
	C430.791443,71.469818 438.261353,71.199677 445.877563,69.993286 
M448.123047,96.801811 
	C452.078430,93.657845 452.123016,89.575172 451.211365,85.312172 
	C446.427399,85.312172 441.882904,84.850037 437.482849,85.448997 
	C433.501953,85.990891 430.908630,88.803902 431.298401,93.186394 
	C431.660980,97.263229 434.691895,98.932846 438.267975,98.871223 
	C441.334167,98.818390 444.383453,97.785324 448.123047,96.801811 
z"/>
<path fill="#272C36" opacity="1.000000" stroke="none" 
	d="
M720.014648,50.909081 
	C724.907715,54.711136 727.691040,59.535931 727.791626,65.227631 
	C728.070251,80.995201 727.888184,96.770920 727.888184,112.772247 
	C721.203186,112.772247 714.775208,112.772247 708.206726,112.772247 
	C708.061646,111.654793 707.917297,110.542862 707.755981,109.299995 
	C707.278687,109.442810 706.779541,109.482941 706.405151,109.720139 
	C696.936951,115.719711 687.049377,115.291595 677.322083,110.906525 
	C670.155396,107.675789 667.868591,101.195587 667.782043,93.634285 
	C667.679932,84.707512 671.628113,77.941444 679.404907,74.291557 
	C684.522217,71.889854 690.466797,71.040558 696.141663,70.111702 
	C699.855286,69.503860 703.749023,69.996979 707.596985,69.996979 
	C706.297180,60.673954 696.725708,58.798454 686.588745,65.762794 
	C685.956726,65.447266 685.220642,65.123589 684.526855,64.726105 
	C680.493713,62.415539 676.470520,60.087601 672.433960,57.759758 
	C682.231567,44.500610 704.548401,41.202374 720.014648,50.909081 
M707.971252,89.219360 
	C707.878662,87.827492 707.786133,86.435623 707.665466,84.621490 
	C702.338013,85.021828 697.439514,84.876976 692.837646,85.974968 
	C690.850586,86.449081 688.692932,89.269012 688.074280,91.439827 
	C687.588501,93.144730 688.741882,96.279358 690.216797,97.412003 
	C696.273743,102.063553 706.595825,97.619797 707.971252,89.219360 
z"/>
<path fill="#292E38" opacity="1.000000" stroke="none" 
	d="
M610.375244,98.027527 
	C607.205566,108.142166 599.501465,112.066338 590.407654,113.602859 
	C577.420288,115.797264 566.631653,111.067261 557.747864,102.356476 
	C561.933228,97.933037 565.977051,93.659180 570.002686,89.404587 
	C572.833313,91.443909 575.493225,94.327881 578.757446,95.443512 
	C582.114624,96.590927 586.082397,96.292961 589.737732,96.020782 
	C590.845459,95.938316 592.647888,93.801979 592.598572,92.673393 
	C592.546265,91.476303 590.873657,89.783836 589.551941,89.316116 
	C585.809204,87.991730 581.775940,87.474052 578.060181,86.092316 
	C574.046509,84.599777 569.873047,83.027092 566.451721,80.547607 
	C556.283264,73.178314 556.524536,58.620491 566.604980,51.089291 
	C577.687256,42.809612 592.661316,43.435150 605.050476,52.753845 
	C606.898376,54.143761 608.577026,55.758625 610.358032,57.290089 
	C606.011719,61.547882 601.873047,65.602287 597.884521,69.509583 
	C594.342163,67.409561 590.710266,64.888474 586.752747,63.080051 
	C585.016846,62.286816 582.485352,62.515465 580.564331,63.099625 
	C579.284241,63.488892 577.709351,65.271873 577.616028,66.531052 
	C577.524109,67.772461 578.839661,69.693390 580.055542,70.335526 
	C582.514587,71.634239 585.330750,72.250900 587.987976,73.181946 
	C592.207092,74.660271 596.589844,75.805946 600.595093,77.733017 
	C609.539368,82.036423 612.166748,87.668259 610.375244,98.027527 
z"/>
<path fill="#292E38" opacity="1.000000" stroke="none" 
	d="
M289.852875,65.997787 
	C285.673523,64.798965 281.841217,63.497524 277.908173,63.010979 
	C276.866333,62.882099 274.661743,65.186790 274.546417,66.509666 
	C274.432922,67.811394 275.995453,69.898209 277.349915,70.557884 
	C280.306671,71.997963 283.605682,72.728561 286.750885,73.790344 
	C290.204193,74.956116 293.728973,75.965752 297.068268,77.402199 
	C304.141846,80.445007 308.236542,85.726913 307.974762,93.675522 
	C307.706238,101.827690 303.259888,107.474884 296.209778,110.873970 
	C282.246918,117.605850 264.707520,113.628006 254.597763,101.951370 
	C258.717285,97.693504 262.821411,93.451523 266.843811,89.294022 
	C269.740295,91.415878 272.290009,94.025116 275.388947,95.338051 
	C278.285309,96.565147 281.804962,96.922272 284.970520,96.668251 
	C286.643158,96.534019 288.145752,94.280945 289.725098,92.984505 
	C288.270477,91.622437 287.043182,89.658188 285.319946,89.007782 
	C279.439972,86.788467 273.223358,85.418488 267.440613,82.995506 
	C260.932251,80.268501 256.583191,75.337730 256.028503,67.899330 
	C255.440323,60.011169 258.734863,54.105774 265.378601,49.884342 
	C278.238861,41.712936 294.359741,44.535858 306.769287,57.088001 
	C302.565552,61.207726 298.355713,65.333405 293.993500,69.608452 
	C293.095154,68.809311 291.628693,67.504761 289.852875,65.997787 
z"/>
<path fill="#272C36" opacity="1.000000" stroke="none" 
	d="
M629.159424,107.814102 
	C624.175049,101.598740 623.335693,94.489906 623.147705,87.298996 
	C622.939697,79.341255 623.100159,71.373878 623.100159,63.000809 
	C620.695984,63.000809 618.623779,63.000809 616.157104,63.000809 
	C616.157104,57.375786 616.157104,52.147594 616.157104,46.348602 
	C618.199646,46.348602 620.403931,46.348602 623.004517,46.348602 
	C623.004517,39.710560 623.004517,33.622982 623.004517,27.270840 
	C629.796326,27.270840 636.190613,27.270840 643.017212,27.270840 
	C643.017212,33.399807 643.017212,39.475674 643.017212,45.921673 
	C648.346252,45.921673 653.269897,45.921673 658.596924,45.921673 
	C658.596924,51.643063 658.596924,56.996593 658.596924,62.713181 
	C653.640564,62.713181 648.701294,62.713181 643.628174,62.713181 
	C643.628174,72.469147 643.170227,81.902664 643.798767,91.263222 
	C644.180176,96.943710 647.776855,98.604263 653.485596,97.035751 
	C655.185120,96.568787 656.782104,95.728668 659.001953,94.825165 
	C659.001953,99.728622 659.160461,104.309967 658.886658,108.865326 
	C658.821106,109.956558 657.523804,111.515694 656.442200,111.919189 
	C646.783386,115.522392 637.583191,115.198029 629.159424,107.814102 
z"/>
<path fill="#FFF0F4" opacity="1.000000" stroke="none" 
	d="
M66.403488,82.568993 
	C68.860344,79.454781 71.872307,78.203590 74.864044,80.252716 
	C76.663857,81.485435 78.614571,84.278267 78.425636,86.162224 
	C78.212105,88.291344 76.049385,90.919594 74.030128,91.947601 
	C72.486115,92.733658 69.476212,91.936562 67.777374,90.831001 
	C64.935593,88.981651 64.711418,85.933708 66.403488,82.568993 
z"/>
<path fill="#FFF4F7" opacity="1.000000" stroke="none" 
	d="
M119.369583,88.305122 
	C118.409714,83.960190 119.714058,80.578400 123.750618,79.967430 
	C125.996910,79.627441 129.269333,80.944611 130.872543,82.649628 
	C133.432419,85.372070 132.186981,89.818245 129.156128,91.735512 
	C125.892380,93.800110 122.441971,92.691010 119.369583,88.305122 
z"/>
<path fill="#FFF2F5" opacity="1.000000" stroke="none" 
	d="
M93.632561,81.808525 
	C96.949051,78.903893 100.542892,78.286880 103.116074,81.441154 
	C104.550903,83.200020 105.160965,86.775146 104.403786,88.917053 
	C103.197403,92.329636 99.960510,93.679878 96.200928,92.086258 
	C92.247063,90.410271 91.339447,87.138168 93.632561,81.808525 
z"/>
<path fill="#FCFCFC" opacity="1.000000" stroke="none" 
	d="
M891.501221,98.862633 
	C875.547424,93.976334 875.548828,71.512497 885.275146,63.788261 
	C890.378174,59.735680 897.257568,59.641666 902.155945,63.944027 
	C911.331116,72.002747 910.982666,88.936798 901.120117,96.110672 
	C898.666809,97.895164 895.006531,98.020164 891.501221,98.862633 
z"/>
<path fill="#FCFCFC" opacity="1.000000" stroke="none" 
	d="
M508.998413,96.156586 
	C498.713989,88.217918 500.460297,70.857452 507.456879,64.591530 
	C513.348999,59.314724 521.234741,59.375515 526.484192,65.239525 
	C533.631104,73.223152 533.687073,86.257843 526.608032,94.069473 
	C521.482300,99.725578 515.936829,100.465927 508.998413,96.156586 
z"/>
<path fill="#F8F8F8" opacity="1.000000" stroke="none" 
	d="
M447.781616,96.993782 
	C444.383453,97.785324 441.334167,98.818390 438.267975,98.871223 
	C434.691895,98.932846 431.660980,97.263229 431.298401,93.186394 
	C430.908630,88.803902 433.501953,85.990891 437.482849,85.448997 
	C441.882904,84.850037 446.427399,85.312172 451.211365,85.312172 
	C452.123016,89.575172 452.078430,93.657845 447.781616,96.993782 
z"/>
<path fill="#FBFBFB" opacity="1.000000" stroke="none" 
	d="
M707.970276,89.653587 
	C706.595825,97.619797 696.273743,102.063553 690.216797,97.412003 
	C688.741882,96.279358 687.588501,93.144730 688.074280,91.439827 
	C688.692932,89.269012 690.850586,86.449081 692.837646,85.974968 
	C697.439514,84.876976 702.338013,85.021828 707.665466,84.621490 
	C707.786133,86.435623 707.878662,87.827492 707.970276,89.653587 
z"/>
</svg>