<svg version="1.1" id="Layer_1" xmlns="http://www.w3.org/2000/svg" xmlns:xlink="http://www.w3.org/1999/xlink" x="0px" y="0px"
	 width="100%" viewBox="0 0 930 159" enable-background="new 0 0 930 159" xml:space="preserve">
<path fill="#FFFFFF" opacity="1.000000" stroke="none" 
	d="
M43.000000,160.000000 
	C29.002930,160.000000 15.005861,160.000000 1.006594,160.000000 
	C1.004396,107.014023 1.004396,54.028049 1.004396,1.021038 
	C310.921082,1.021038 620.842163,1.021038 930.881592,1.021038 
	C930.881592,53.909752 930.881592,106.819862 930.881592,160.000000 
	C675.310059,160.000000 419.620056,160.000000 163.479996,159.635223 
	C166.804626,156.820908 170.493164,154.224228 174.372299,151.953125 
	C181.909439,147.540375 183.996658,141.026978 180.032150,133.207458 
	C177.958832,129.118073 175.507080,125.210968 173.608780,121.047134 
	C172.849930,119.382629 172.529221,117.077339 173.026352,115.357834 
	C175.144073,108.032700 177.642517,100.817627 180.185120,92.999275 
	C181.330627,92.999275 183.144928,93.134254 184.928101,92.956688 
	C186.362320,92.813881 188.334061,92.751350 189.055328,91.846519 
	C190.679733,89.808731 192.894653,87.125153 192.637314,84.971008 
	C192.270340,81.899094 190.153503,79.036911 185.953629,78.897446 
	C183.431290,78.813690 180.159180,80.710625 178.853012,75.863708 
	C176.787003,68.197205 174.471497,60.420429 170.916916,53.368050 
	C162.473480,36.616100 148.369186,25.769840 130.499878,21.278570 
	C112.222664,16.684774 93.335945,18.430126 74.720154,20.103642 
	C69.824699,20.543730 65.644806,20.439104 61.113697,18.198334 
	C56.192200,15.764512 50.732998,14.356506 45.424740,12.782952 
	C39.724655,11.093249 36.135807,13.191031 35.051758,19.040346 
	C33.505306,27.384718 32.755817,35.896992 30.830200,44.142380 
	C29.866819,48.267509 26.358412,51.770866 25.233076,55.891869 
	C23.446547,62.434193 19.923536,65.054451 13.116483,65.196915 
	C7.564569,65.313110 4.534124,68.151283 4.882826,73.920456 
	C5.354286,81.720619 5.137622,89.573967 4.951581,97.398201 
	C4.827806,102.603783 6.751234,105.952873 12.023643,107.073112 
	C18.700787,108.491814 24.244820,110.540047 26.611353,118.458504 
	C27.773092,122.345703 28.946365,124.643929 26.409861,128.452652 
	C19.312191,139.110260 21.384224,147.420074 32.367054,153.169418 
	C36.084541,155.115479 39.465340,157.704697 43.000000,160.000000 
z"/>
<path fill="#E131B0" opacity="1.000000" stroke="none" 
	d="
M43.444160,160.000000 
	C39.465340,157.704697 36.084541,155.115479 32.367054,153.169418 
	C21.384224,147.420074 19.312191,139.110260 26.409861,128.452652 
	C28.946365,124.643929 27.773092,122.345703 26.611353,118.458504 
	C24.244820,110.540047 18.700787,108.491814 12.023643,107.073112 
	C6.751234,105.952873 4.827806,102.603783 4.951581,97.398201 
	C5.137622,89.573967 5.354286,81.720619 4.882826,73.920456 
	C4.534124,68.151283 7.564569,65.313110 13.116483,65.196915 
	C19.923536,65.054451 23.446547,62.434193 25.233076,55.891869 
	C26.358412,51.770866 29.866819,48.267509 30.830200,44.142380 
	C32.755817,35.896992 33.505306,27.384718 35.051758,19.040346 
	C36.135807,13.191031 39.724655,11.093249 45.424740,12.782952 
	C50.732998,14.356506 56.192200,15.764512 61.113697,18.198334 
	C65.644806,20.439104 69.824699,20.543730 74.720154,20.103642 
	C93.335945,18.430126 112.222664,16.684774 130.499878,21.278570 
	C148.369186,25.769840 162.473480,36.616100 170.916916,53.368050 
	C174.471497,60.420429 176.787003,68.197205 178.853012,75.863708 
	C180.159180,80.710625 183.431290,78.813690 185.953629,78.897446 
	C190.153503,79.036911 192.270340,81.899094 192.637314,84.971008 
	C192.894653,87.125153 190.679733,89.808731 189.055328,91.846519 
	C188.334061,92.751350 186.362320,92.813881 184.928101,92.956688 
	C183.144928,93.134254 181.330627,92.999275 180.185120,92.999275 
	C177.642517,100.817627 175.144073,108.032700 173.026352,115.357834 
	C172.529221,117.077339 172.849930,119.382629 173.608780,121.047134 
	C175.507080,125.210968 177.958832,129.118073 180.032150,133.207458 
	C183.996658,141.026978 181.909439,147.540375 174.372299,151.953125 
	C170.493164,154.224228 166.804626,156.820908 163.014984,159.635223 
	C158.975449,160.000000 154.950912,160.000000 150.357162,159.665863 
	C146.862244,155.310486 143.936539,151.289230 140.998825,147.251465 
	C135.781128,148.789291 130.404587,151.400818 124.868294,151.800751 
	C111.652412,152.755478 98.361115,152.895370 85.100426,152.890930 
	C79.571732,152.889084 73.911079,152.212067 68.553490,150.871017 
	C63.545284,149.617432 60.070290,149.843460 57.855484,155.109116 
	C57.318703,156.385300 55.398800,157.079727 53.751816,158.034027 
	C52.592487,158.684265 51.796246,159.342133 51.000000,160.000000 
	C48.629444,160.000000 46.258884,160.000000 43.444160,160.000000 
M74.725739,80.349159 
	C69.092323,79.727707 65.682388,81.480492 66.176689,85.323112 
	C66.470001,87.603363 67.982178,90.551109 69.834274,91.546448 
	C71.323357,92.346687 74.759422,91.320557 76.239723,89.936790 
	C78.713020,87.624809 78.811058,84.453178 75.794220,81.484634 
	C75.631607,81.267059 75.422302,81.112846 74.725739,80.349159 
M119.109062,85.665718 
	C120.649124,87.727089 121.821068,90.397583 123.861641,91.630730 
	C125.171478,92.422287 128.107376,91.632431 129.699509,90.601692 
	C132.463211,88.812469 132.027603,85.546547 130.764740,83.203117 
	C129.946198,81.684158 127.581932,80.377457 125.764931,80.153221 
	C122.505409,79.750977 120.363403,81.779839 119.109062,85.665718 
M102.934906,90.521629 
	C105.932404,86.801498 105.625748,83.099335 102.047173,81.042091 
	C99.391975,79.515686 96.356445,78.993011 94.713646,82.007301 
	C93.637230,83.982338 93.042839,87.151360 93.890175,89.043205 
	C95.488632,92.612122 98.871201,92.840576 102.934906,90.521629 
z"/>
<path fill="#FFFFFF" opacity="1.000000" stroke="none" 
	d="
M54.114899,158.041672 
	C55.398800,157.079727 57.318703,156.385300 57.855484,155.109116 
	C60.070290,149.843460 63.545284,149.617432 68.553490,150.871017 
	C73.911079,152.212067 79.571732,152.889084 85.100426,152.890930 
	C98.361115,152.895370 111.652412,152.755478 124.868294,151.800751 
	C130.404587,151.400818 135.781128,148.789291 140.998825,147.251465 
	C143.936539,151.289230 146.862244,155.310486 149.893982,159.665863 
	C118.312439,160.000000 86.624878,160.000000 54.470627,159.672485 
	C54.040924,158.910522 54.077911,158.476105 54.114899,158.041672 
z"/>
<path fill="#E131B0" opacity="1.000000" stroke="none" 
	d="
M53.751816,158.034027 
	C54.077911,158.476105 54.040924,158.910522 54.001968,159.672485 
	C53.250000,160.000000 52.500000,160.000000 51.375000,160.000000 
	C51.796246,159.342133 52.592487,158.684265 53.751816,158.034027 
z"/>
<path fill="#FFFFFF" opacity="1.000000" stroke="none" 
	d="
M119.307053,85.330833 
	C120.363403,81.779839 122.505409,79.750977 125.764931,80.153221 
	C127.581932,80.377457 129.946198,81.684158 130.764740,83.203117 
	C132.027603,85.546547 132.463211,88.812469 129.699509,90.601692 
	C128.107376,91.632431 125.171478,92.422287 123.861641,91.630730 
	C121.821068,90.397583 120.649124,87.727089 119.307053,85.330833 
z"/>
<path fill="#FFFFFF" opacity="1.000000" stroke="none" 
	d="
M102.593414,90.725136 
	C98.871201,92.840576 95.488632,92.612122 93.890175,89.043205 
	C93.042839,87.151360 93.637230,83.982338 94.713646,82.007301 
	C96.356445,78.993011 99.391975,79.515686 102.047173,81.042091 
	C105.625748,83.099335 105.932404,86.801498 102.593414,90.725136 
z"/>
<path fill="#FFFFFF" opacity="1.000000" stroke="none" 
	d="
M75.978142,81.833694 
	C78.811058,84.453178 78.713020,87.624809 76.239723,89.936790 
	C74.759422,91.320557 71.323357,92.346687 69.834274,91.546448 
	C67.982178,90.551109 66.470001,87.603363 66.176689,85.323112 
	C65.682388,81.480492 69.092323,79.727707 74.931602,80.931610 
	C75.137466,81.514069 75.486084,81.862488 75.486084,81.862488 
	C75.486084,81.862488 75.978142,81.833694 75.978142,81.833694 
z"/>
<path fill="#E131B0" opacity="1.000000" stroke="none" 
	d="
M75.886185,81.659164 
	C75.978142,81.833694 75.486084,81.862488 75.486084,81.862488 
	C75.486084,81.862488 75.137466,81.514069 75.151886,81.268036 
	C75.422302,81.112846 75.631607,81.267059 75.886185,81.659164 
z"/>
</svg>