<svg version="1.1" id="Layer_1" xmlns="http://www.w3.org/2000/svg" xmlns:xlink="http://www.w3.org/1999/xlink" x="0px" y="0px"
	 width="100%" viewBox="0 0 212 205" enable-background="new 0 0 212 205" xml:space="preserve">
<path fill="#FFFFFF" opacity="1.000000" stroke="none" 
	d="
M139.000000,206.000000 
	C92.666672,206.000000 46.833340,206.000000 1.000006,206.000000 
	C1.000004,137.666672 1.000004,69.333344 1.000002,1.000015 
	C71.666656,1.000010 142.333313,1.000010 212.999969,1.000005 
	C212.999985,69.333321 212.999985,137.666641 213.000000,205.999969 
	C188.500000,206.000000 164.000000,206.000000 139.000000,206.000000 
M86.754700,170.000595 
	C99.079430,170.000595 111.404266,170.025787 123.728798,169.976517 
	C125.852989,169.968018 128.041397,169.912369 130.087296,169.414658 
	C136.579926,167.835205 143.019150,166.036285 149.434311,164.334076 
	C150.494736,165.933975 151.691422,167.632172 152.778458,169.397888 
	C157.642654,177.299057 163.697601,179.158432 171.802856,174.994583 
	C175.366409,173.163895 178.739548,170.965744 182.229919,168.988739 
	C189.973053,164.602905 192.023590,158.125427 188.007446,150.215363 
	C185.899933,146.064514 183.411514,142.096710 181.490921,137.866547 
	C180.753830,136.243118 180.578491,133.963654 181.073868,132.251205 
	C183.198380,124.907104 185.668045,117.662865 188.134903,110.000198 
	C189.519928,110.000198 191.499863,110.017235 193.479416,109.996620 
	C197.499802,109.954773 200.399780,107.479652 200.688004,104.045708 
	C200.886993,101.674805 198.805389,98.597794 196.869751,96.752014 
	C195.674530,95.612289 192.716202,96.549988 190.782043,95.881737 
	C189.329849,95.379990 187.383820,93.976814 187.128769,92.684578 
	C181.899277,66.189667 166.738297,48.293903 141.374954,38.978935 
	C132.220215,35.616753 122.728088,35.819378 113.237251,36.023178 
	C102.499481,36.253746 91.766281,36.691021 81.029617,36.984123 
	C78.236427,37.060375 75.241730,37.568710 72.679871,36.777203 
	C66.123413,34.751526 59.819927,31.919880 53.297916,29.765907 
	C47.833496,27.961218 44.052677,30.270517 43.049263,35.946148 
	C41.838646,42.793770 40.753025,49.682739 40.071674,56.598969 
	C39.458168,62.826584 35.243279,67.381134 33.325481,72.824623 
	C31.059046,79.257675 27.964207,82.027008 21.083868,82.196609 
	C15.267561,82.339981 12.527812,85.425629 12.868097,90.775375 
	C13.374558,98.737617 13.127190,106.758728 12.952503,114.749374 
	C12.843884,119.717957 14.808511,122.960434 19.705975,123.972656 
	C26.628851,125.403488 32.123825,127.647766 34.659649,135.592377 
	C35.898006,139.472092 36.853386,141.599518 34.432545,145.394714 
	C27.347965,156.501328 29.591248,162.331757 37.320889,168.621460 
	C40.523312,171.227325 44.422024,173.007416 48.091053,175.003159 
	C54.180752,178.315552 62.652367,177.937164 65.263550,172.820526 
	C68.788261,165.913818 73.006760,166.581223 78.652885,168.784088 
	C80.862297,169.646118 83.417679,169.621384 86.754700,170.000595 
z"/>
<path fill="#000000" opacity="1.000000" stroke="none" 
	d="
M86.285095,170.000565 
	C83.417679,169.621384 80.862297,169.646118 78.652885,168.784088 
	C73.006760,166.581223 68.788261,165.913818 65.263550,172.820526 
	C62.652367,177.937164 54.180752,178.315552 48.091053,175.003159 
	C44.422024,173.007416 40.523312,171.227325 37.320889,168.621460 
	C29.591248,162.331757 27.347965,156.501328 34.432545,145.394714 
	C36.853386,141.599518 35.898006,139.472092 34.659649,135.592377 
	C32.123825,127.647766 26.628851,125.403488 19.705975,123.972656 
	C14.808511,122.960434 12.843884,119.717957 12.952503,114.749374 
	C13.127190,106.758728 13.374558,98.737617 12.868097,90.775375 
	C12.527812,85.425629 15.267561,82.339981 21.083868,82.196609 
	C27.964207,82.027008 31.059046,79.257675 33.325481,72.824623 
	C35.243279,67.381134 39.458168,62.826584 40.071674,56.598969 
	C40.753025,49.682739 41.838646,42.793770 43.049263,35.946148 
	C44.052677,30.270517 47.833496,27.961218 53.297916,29.765907 
	C59.819927,31.919880 66.123413,34.751526 72.679871,36.777203 
	C75.241730,37.568710 78.236427,37.060375 81.029617,36.984123 
	C91.766281,36.691021 102.499481,36.253746 113.237251,36.023178 
	C122.728088,35.819378 132.220215,35.616753 141.374954,38.978935 
	C166.738297,48.293903 181.899277,66.189667 187.128769,92.684578 
	C187.383820,93.976814 189.329849,95.379990 190.782043,95.881737 
	C192.716202,96.549988 195.674530,95.612289 196.869751,96.752014 
	C198.805389,98.597794 200.886993,101.674805 200.688004,104.045708 
	C200.399780,107.479652 197.499802,109.954773 193.479416,109.996620 
	C191.499863,110.017235 189.519928,110.000198 188.134903,110.000198 
	C185.668045,117.662865 183.198380,124.907104 181.073868,132.251205 
	C180.578491,133.963654 180.753830,136.243118 181.490921,137.866547 
	C183.411514,142.096710 185.899933,146.064514 188.007446,150.215363 
	C192.023590,158.125427 189.973053,164.602905 182.229919,168.988739 
	C178.739548,170.965744 175.366409,173.163895 171.802856,174.994583 
	C163.697601,179.158432 157.642654,177.299057 152.778458,169.397888 
	C151.691422,167.632172 150.494736,165.933975 149.434311,164.334076 
	C143.019150,166.036285 136.579926,167.835205 130.087296,169.414658 
	C128.041397,169.912369 125.852989,169.968018 123.728798,169.976517 
	C111.404266,170.025787 99.079430,170.000595 86.285095,170.000565 
M127.117134,100.652466 
	C127.017395,101.305458 126.616058,102.124771 126.868912,102.583336 
	C128.118393,104.849213 129.084244,108.106659 131.028564,108.923508 
	C133.044800,109.770576 136.970581,109.045876 138.395752,107.486511 
	C139.808380,105.940834 139.972855,102.225067 139.221573,99.942734 
	C137.597183,95.008064 131.517166,95.183296 127.117134,100.652466 
M110.805374,108.430641 
	C113.932404,105.346687 114.814636,101.897675 111.603233,98.501656 
	C109.039162,95.790199 105.796402,95.548546 102.685196,97.800926 
	C99.639275,100.006058 99.405495,103.176392 100.903450,106.174118 
	C102.887733,110.145081 106.367935,110.446014 110.805374,108.430641 
M83.287224,97.122536 
	C79.131287,95.419342 75.694946,96.400879 73.779427,100.448883 
	C72.257004,103.666199 73.403755,106.684288 76.400978,108.576508 
	C79.626884,110.613091 82.823875,110.039780 85.171661,107.089325 
	C87.920990,103.634247 87.125778,100.387451 83.287224,97.122536 
z"/>
<path fill="#FFFFFF" opacity="1.000000" stroke="none" 
	d="
M127.271500,100.321205 
	C131.517166,95.183296 137.597183,95.008064 139.221573,99.942734 
	C139.972855,102.225067 139.808380,105.940834 138.395752,107.486511 
	C136.970581,109.045876 133.044800,109.770576 131.028564,108.923508 
	C129.084244,108.106659 128.118393,104.849213 126.868912,102.583336 
	C126.616058,102.124771 127.017395,101.305458 127.271500,100.321205 
z"/>
<path fill="#FFFFFF" opacity="1.000000" stroke="none" 
	d="
M110.494980,108.639084 
	C106.367935,110.446014 102.887733,110.145081 100.903450,106.174118 
	C99.405495,103.176392 99.639275,100.006058 102.685196,97.800926 
	C105.796402,95.548546 109.039162,95.790199 111.603233,98.501656 
	C114.814636,101.897675 113.932404,105.346687 110.494980,108.639084 
z"/>
<path fill="#FFFFFF" opacity="1.000000" stroke="none" 
	d="
M83.552383,97.385254 
	C87.125778,100.387451 87.920990,103.634247 85.171661,107.089325 
	C82.823875,110.039780 79.626884,110.613091 76.400978,108.576508 
	C73.403755,106.684288 72.257004,103.666199 73.779427,100.448883 
	C75.694946,96.400879 79.131287,95.419342 83.552383,97.385254 
z"/>
</svg>