<svg version="1.1" id="Layer_1" xmlns="http://www.w3.org/2000/svg" xmlns:xlink="http://www.w3.org/1999/xlink" x="0px" y="0px"
	 width="100%" viewBox="0 0 212 205" enable-background="new 0 0 212 205" xml:space="preserve">
<path fill="#FFFEFF" opacity="1.000000" stroke="none" 
	d="
M139.000000,206.000000 
	C92.666672,206.000000 46.833340,206.000000 1.000006,206.000000 
	C1.000004,137.666672 1.000004,69.333344 1.000002,1.000015 
	C71.666656,1.000010 142.333313,1.000010 212.999969,1.000005 
	C212.999985,69.333321 212.999985,137.666641 213.000000,205.999969 
	C188.500000,206.000000 164.000000,206.000000 139.000000,206.000000 
M67.615173,169.031204 
	C68.721771,166.494965 70.227951,166.036728 73.112892,166.751373 
	C79.045586,168.220978 85.176956,169.830719 91.211388,169.773819 
	C110.696503,169.590088 130.601166,172.770050 149.028214,163.361038 
	C150.504913,165.605698 151.707703,167.372116 152.848022,169.177979 
	C158.044052,177.406616 164.841080,178.986649 173.154343,173.925537 
	C176.409500,171.943802 179.685516,169.991333 183.011749,168.132446 
	C188.407623,165.116928 190.208130,160.171722 189.212692,154.597916 
	C188.596619,151.148376 186.623383,147.797424 184.699844,144.756088 
	C181.064423,139.008026 177.945114,133.586548 182.467331,126.690018 
	C184.117737,124.173103 184.718704,120.780090 185.153244,117.695862 
	C185.890625,112.461906 187.167709,108.781212 193.853058,109.457298 
	C197.729019,109.849274 200.390747,106.986458 200.304184,102.783836 
	C200.216782,98.540955 197.347702,96.717590 193.493744,96.257286 
	C191.415802,96.009102 189.304611,96.039337 187.336838,95.949791 
	C186.722183,92.983086 186.312119,90.517502 185.695938,88.104553 
	C179.355835,63.277012 164.086441,46.251129 139.561127,39.165447 
	C119.818336,33.461506 99.372421,35.332741 79.143303,37.682865 
	C76.817520,37.953064 74.239021,37.672886 72.019913,36.927135 
	C65.741829,34.817322 59.634319,32.203728 53.373375,30.037882 
	C48.539650,28.365751 45.425385,30.006884 43.735584,34.876785 
	C42.976910,37.063240 42.487846,39.356960 42.035217,41.633575 
	C39.809029,52.830864 40.999737,64.958366 33.015583,74.582352 
	C32.919132,74.698616 32.926205,74.899544 32.881191,75.059898 
	C31.568029,79.737976 28.669018,82.291870 23.623093,82.223129 
	C22.150229,82.203064 20.666739,82.628044 19.195465,82.890266 
	C15.171601,83.607445 13.067147,86.038078 13.045362,90.110970 
	C12.999926,98.605865 12.978690,107.101707 13.059222,115.596107 
	C13.096675,119.546524 15.106027,122.103027 18.987745,123.213814 
	C22.015070,124.080101 25.034811,125.014023 27.967472,126.151154 
	C29.267904,126.655380 30.833422,127.470734 31.443546,128.597168 
	C35.086182,135.322342 39.784554,142.102478 32.764851,149.538803 
	C32.654053,149.656174 32.591972,149.822952 32.519585,149.972687 
	C29.076078,157.096283 30.601681,163.350098 37.115749,167.844284 
	C40.256527,170.011185 43.661026,171.792297 46.907372,173.810410 
	C54.702847,178.656586 61.869118,177.190216 67.615173,169.031204 
z"/>
<path fill="#FD3064" opacity="1.000000" stroke="none" 
	d="
M67.394699,169.325897 
	C61.869118,177.190216 54.702847,178.656586 46.907372,173.810410 
	C43.661026,171.792297 40.256527,170.011185 37.115749,167.844284 
	C30.601681,163.350098 29.076078,157.096283 32.519585,149.972687 
	C32.591972,149.822952 32.654053,149.656174 32.764851,149.538803 
	C39.784554,142.102478 35.086182,135.322342 31.443546,128.597168 
	C30.833422,127.470734 29.267904,126.655380 27.967472,126.151154 
	C25.034811,125.014023 22.015070,124.080101 18.987745,123.213814 
	C15.106027,122.103027 13.096675,119.546524 13.059222,115.596107 
	C12.978690,107.101707 12.999926,98.605865 13.045362,90.110970 
	C13.067147,86.038078 15.171601,83.607445 19.195465,82.890266 
	C20.666739,82.628044 22.150229,82.203064 23.623093,82.223129 
	C28.669018,82.291870 31.568029,79.737976 32.881191,75.059898 
	C32.926205,74.899544 32.919132,74.698616 33.015583,74.582352 
	C40.999737,64.958366 39.809029,52.830864 42.035217,41.633575 
	C42.487846,39.356960 42.976910,37.063240 43.735584,34.876785 
	C45.425385,30.006884 48.539650,28.365751 53.373375,30.037882 
	C59.634319,32.203728 65.741829,34.817322 72.019913,36.927135 
	C74.239021,37.672886 76.817520,37.953064 79.143303,37.682865 
	C99.372421,35.332741 119.818336,33.461506 139.561127,39.165447 
	C164.086441,46.251129 179.355835,63.277012 185.695938,88.104553 
	C186.312119,90.517502 186.722183,92.983086 187.336838,95.949791 
	C189.304611,96.039337 191.415802,96.009102 193.493744,96.257286 
	C197.347702,96.717590 200.216782,98.540955 200.304184,102.783836 
	C200.390747,106.986458 197.729019,109.849274 193.853058,109.457298 
	C187.167709,108.781212 185.890625,112.461906 185.153244,117.695862 
	C184.718704,120.780090 184.117737,124.173103 182.467331,126.690018 
	C177.945114,133.586548 181.064423,139.008026 184.699844,144.756088 
	C186.623383,147.797424 188.596619,151.148376 189.212692,154.597916 
	C190.208130,160.171722 188.407623,165.116928 183.011749,168.132446 
	C179.685516,169.991333 176.409500,171.943802 173.154343,173.925537 
	C164.841080,178.986649 158.044052,177.406616 152.848022,169.177979 
	C151.707703,167.372116 150.504913,165.605698 149.028214,163.361038 
	C130.601166,172.770050 110.696503,169.590088 91.211388,169.773819 
	C85.176956,169.830719 79.045586,168.220978 73.112892,166.751373 
	C70.227951,166.036728 68.721771,166.494965 67.394699,169.325897 
M137.955963,108.692337 
	C138.565231,107.913536 139.725769,107.104988 139.685638,106.361237 
	C139.534683,103.563492 139.879990,100.012894 138.329742,98.235268 
	C136.970505,96.676651 132.703293,95.975769 130.846436,96.979279 
	C128.797821,98.086449 127.052193,101.514717 126.917809,104.025253 
	C126.663010,108.785408 131.290466,110.795891 137.955963,108.692337 
M113.435814,104.843666 
	C112.412193,102.294838 111.991608,99.081245 110.161690,97.421234 
	C108.851746,96.232925 104.922256,96.193825 103.481758,97.324287 
	C101.647316,98.763924 100.127556,102.012642 100.374680,104.273529 
	C100.592049,106.262146 103.105957,108.809738 105.181976,109.603958 
	C108.693718,110.947449 111.566147,109.013313 113.435814,104.843666 
M73.145386,101.836807 
	C73.376465,107.610329 77.408508,111.508804 81.692505,109.432304 
	C83.941132,108.342369 86.564850,105.280777 86.579872,103.092796 
	C86.595192,100.860756 84.075546,97.563187 81.854515,96.597031 
	C78.036057,94.936020 74.916405,97.178123 73.145386,101.836807 
z"/>
<path fill="#FEF7F9" opacity="1.000000" stroke="none" 
	d="
M137.641144,108.914215 
	C131.290466,110.795891 126.663010,108.785408 126.917809,104.025253 
	C127.052193,101.514717 128.797821,98.086449 130.846436,96.979279 
	C132.703293,95.975769 136.970505,96.676651 138.329742,98.235268 
	C139.879990,100.012894 139.534683,103.563492 139.685638,106.361237 
	C139.725769,107.104988 138.565231,107.913536 137.641144,108.914215 
z"/>
<path fill="#FEF3F6" opacity="1.000000" stroke="none" 
	d="
M113.313171,105.202309 
	C111.566147,109.013313 108.693718,110.947449 105.181976,109.603958 
	C103.105957,108.809738 100.592049,106.262146 100.374680,104.273529 
	C100.127556,102.012642 101.647316,98.763924 103.481758,97.324287 
	C104.922256,96.193825 108.851746,96.232925 110.161690,97.421234 
	C111.991608,99.081245 112.412193,102.294838 113.313171,105.202309 
z"/>
<path fill="#FEF5F8" opacity="1.000000" stroke="none" 
	d="
M73.211807,101.448944 
	C74.916405,97.178123 78.036057,94.936020 81.854515,96.597031 
	C84.075546,97.563187 86.595192,100.860756 86.579872,103.092796 
	C86.564850,105.280777 83.941132,108.342369 81.692505,109.432304 
	C77.408508,111.508804 73.376465,107.610329 73.211807,101.448944 
z"/>
</svg>