<svg version="1.1" id="Layer_1" xmlns="http://www.w3.org/2000/svg" xmlns:xlink="http://www.w3.org/1999/xlink" x="0px" y="0px"
	 width="100%" viewBox="0 0 930 159" enable-background="new 0 0 930 159" xml:space="preserve">
<path fill="#FFFFFF" opacity="1.000000" stroke="none" 
	d="
M44.000000,160.000000 
	C29.669661,160.000000 15.339322,160.000000 1.006737,160.000000 
	C1.004492,107.014069 1.004492,54.028133 1.004492,1.021100 
	C310.921173,1.021100 620.842346,1.021100 930.881714,1.021100 
	C930.881714,53.909859 930.881714,106.820076 930.881714,160.000000 
	C674.310059,160.000000 417.620056,160.000000 160.586609,159.662308 
	C165.292511,156.503418 170.425079,153.819672 175.369263,150.824905 
	C181.051971,147.382797 183.092911,140.391296 180.320267,134.264328 
	C179.231979,131.859406 177.855804,129.566299 176.435623,127.333664 
	C172.891037,121.761246 169.955078,116.370575 174.464142,109.681892 
	C176.139954,107.196053 176.722412,103.776970 177.154327,100.692566 
	C177.888275,95.451340 179.178864,91.784569 185.857559,92.456688 
	C189.736786,92.847061 192.394043,89.979439 192.304840,85.779015 
	C192.214752,81.537598 189.346420,79.683838 185.487671,79.269028 
	C183.422379,79.047012 181.313599,79.229614 179.341385,79.229614 
	C179.033157,77.612122 178.877823,76.797668 178.722748,75.983162 
	C172.757431,44.651039 151.802383,24.070509 120.180832,19.864441 
	C109.203987,18.404377 97.760803,17.983683 86.817627,19.363873 
	C73.258705,21.073971 60.956795,19.367615 48.442635,14.112231 
	C39.374325,10.303950 37.040112,12.305259 34.579144,21.914352 
	C34.332272,22.878277 34.160717,23.862602 33.980354,24.842274 
	C31.911156,36.081612 32.791706,48.127518 24.963940,57.795845 
	C24.766903,58.039211 24.719841,58.409283 24.620766,58.725872 
	C23.358568,62.759174 20.932571,65.233780 16.396801,65.112404 
	C15.081121,65.077187 13.744197,65.343880 12.436686,65.580772 
	C6.855103,66.592018 5.091969,68.657494 5.037387,74.329636 
	C4.990906,79.160072 5.041199,83.991364 5.026288,88.822205 
	C4.974761,105.516464 3.985081,104.066803 19.232635,108.909859 
	C22.048687,109.804321 29.516207,121.011551 29.121977,123.861450 
	C28.969555,124.963318 28.287096,126.011818 27.753857,127.036621 
	C26.833208,128.805939 25.775227,130.505386 24.889145,132.290863 
	C20.826324,140.477554 22.449982,146.599701 30.124598,151.535385 
	C34.680138,154.465118 39.370346,157.185486 44.000000,160.000000 
M765.962524,48.189014 
	C764.072632,49.385437 762.182678,50.581860 760.136169,51.877419 
	C760.011597,49.820236 759.912354,48.181282 759.808472,46.465443 
	C753.220215,46.465443 746.814087,46.465443 740.265381,46.465443 
	C740.265381,68.694633 740.265381,90.610550 740.265381,112.765945 
	C746.861328,112.765945 753.251648,112.765945 760.004944,112.765945 
	C760.004944,111.570976 760.004883,110.609833 760.004883,109.648697 
	C760.005188,97.321274 759.891724,84.992416 760.048157,72.666969 
	C760.143860,65.123077 765.105957,60.438000 772.668152,60.239021 
	C779.656189,60.055149 782.839478,63.171162 783.197327,71.542465 
	C783.581238,80.522614 783.442993,89.525597 783.504639,98.518806 
	C783.537231,103.278366 783.510315,108.038330 783.510315,112.688080 
	C790.619873,112.688080 797.035461,112.688080 803.795166,112.688080 
	C803.795166,99.574394 803.755127,86.775719 803.835144,73.977798 
	C803.848267,71.881073 804.017273,69.644531 804.756775,67.719437 
	C807.010803,61.851883 812.243591,59.319118 818.901855,60.517323 
	C824.010254,61.436607 826.995056,65.499519 827.013000,71.793793 
	C827.051758,85.402359 827.024902,99.011108 827.024902,112.751717 
	C833.885925,112.751717 840.282166,112.751717 847.006165,112.751717 
	C847.006165,103.205444 847.135193,93.907928 846.964417,84.615921 
	C846.833252,77.480469 846.918579,70.259270 845.824585,63.245144 
	C844.612976,55.477703 840.926819,49.338497 832.312317,46.862595 
	C819.518555,43.185547 808.436646,46.230656 798.243774,53.767242 
	C788.885315,44.790684 778.415771,43.017632 765.962524,48.189014 
M536.938293,51.512592 
	C526.432556,44.453701 515.593567,43.662930 504.723602,49.246704 
	C503.497864,48.237114 502.279083,46.370708 500.952637,46.290760 
	C495.351990,45.953205 489.719330,46.147831 483.951050,46.147831 
	C483.951050,79.145500 483.951050,111.669724 483.951050,144.206268 
	C490.600525,144.206268 496.853790,144.206268 503.817780,144.206268 
	C503.817780,132.591782 503.817780,121.284058 503.817780,109.657043 
	C524.028259,119.674431 540.064514,109.905579 546.481628,98.351990 
	C555.310852,82.455589 551.146057,61.678272 536.938293,51.512592 
M349.763550,105.349884 
	C352.768982,97.468254 355.774414,89.586624 359.245117,80.484840 
	C363.788422,92.268654 367.771912,102.600365 371.730347,112.867233 
	C376.196106,112.867233 380.339111,112.867233 384.765472,112.867233 
	C393.088715,90.857849 401.398560,68.883888 409.994812,46.152542 
	C403.513580,46.152542 398.531799,46.250393 393.556458,46.113571 
	C390.840240,46.038872 389.688416,46.777512 388.841919,49.730637 
	C385.739349,60.554569 382.078247,71.218407 378.627411,81.942520 
	C378.293854,81.950417 377.960266,81.958321 377.626709,81.966225 
	C373.904572,70.113342 370.182434,58.260456 366.381104,46.155373 
	C362.163330,46.155373 358.171661,45.980156 354.214081,46.270126 
	C353.131897,46.349419 351.618835,47.627468 351.222961,48.696037 
	C349.919128,52.215405 349.104767,55.912254 347.978424,59.502045 
	C345.622528,67.010948 343.187469,74.495010 340.341431,83.372726 
	C336.112427,70.099930 332.334045,58.241325 328.600098,46.522308 
	C321.883820,46.522308 315.524597,46.522308 309.209015,46.522308 
	C309.130798,47.218811 308.971039,47.592537 309.074890,47.866180 
	C317.020660,68.796165 324.980103,89.720993 332.977905,110.631149 
	C333.297485,111.466774 333.964478,112.786781 334.522491,112.814445 
	C338.339142,113.003654 342.372406,113.609619 345.906097,112.590767 
	C347.538208,112.120186 348.203552,108.296638 349.763550,105.349884 
M880.006042,115.720848 
	C880.006042,113.645950 880.006042,111.571060 880.006042,109.151321 
	C891.618958,115.974968 903.020203,115.892159 913.455139,108.724686 
	C926.299316,99.902359 929.890015,86.884850 926.954895,71.952744 
	C924.837708,61.181339 918.471252,53.176117 908.738342,48.674900 
	C899.221985,44.273830 889.199585,42.585648 880.235840,50.791943 
	C879.996216,49.013195 879.809509,47.627369 879.650024,46.443443 
	C872.909180,46.443443 866.650269,46.443443 860.211426,46.443443 
	C860.211426,79.149826 860.211426,111.558838 860.211426,144.251526 
	C866.798218,144.251526 873.212036,144.251526 880.005981,144.251526 
	C880.005981,134.918930 880.005981,125.794159 880.006042,115.720848 
M681.238159,49.629250 
	C677.857239,52.068695 674.476257,54.508141 670.842773,57.129810 
	C675.458069,59.847580 679.202148,62.220711 683.121155,64.257225 
	C684.294067,64.866730 686.516052,65.193230 687.299316,64.525520 
	C691.338928,61.081867 696.048645,61.567501 700.566284,62.126781 
	C704.492615,62.612850 706.855469,65.297806 706.982971,69.995071 
	C703.196106,69.995071 699.473145,69.442833 695.987061,70.116394 
	C689.783691,71.314995 683.236023,72.288406 677.700806,75.078735 
	C664.471313,81.747795 662.938293,100.844215 674.368286,109.701088 
	C681.228027,115.016586 695.583191,115.485573 703.710876,110.675896 
	C704.670532,110.108009 705.683105,109.629524 706.828125,109.026970 
	C707.005859,110.458542 707.144531,111.575386 707.292358,112.765976 
	C713.811401,112.765976 720.230408,112.765976 726.907288,112.765976 
	C726.907288,96.755325 727.196533,80.974770 726.777832,65.213013 
	C726.585938,57.989815 722.724365,52.191635 715.957520,49.110527 
	C704.649902,43.961929 693.225525,44.737900 681.238159,49.629250 
M440.509094,61.870117 
	C448.365417,62.148464 450.948059,64.144951 450.670288,69.993294 
	C446.702576,69.993294 442.708038,69.791405 438.740662,70.033958 
	C429.563202,70.595032 421.234955,73.137016 415.057495,80.607544 
	C406.428253,91.043137 411.147644,107.674599 423.782166,112.083694 
	C433.167511,115.358894 441.909912,114.327301 449.317383,110.047691 
	C456.470520,115.571053 463.813568,111.607132 470.742767,113.305969 
	C470.742767,96.375610 471.034515,80.263840 470.518280,64.177994 
	C470.402832,60.580254 468.105835,56.528187 465.682434,53.631233 
	C459.441467,46.170685 450.646454,45.896389 441.619812,45.864185 
	C431.099304,45.826649 422.741730,49.531582 416.044373,57.669876 
	C417.799072,58.776562 419.411011,59.923637 421.138367,60.857189 
	C425.609222,63.273449 429.822235,67.761894 435.288635,62.366150 
	C436.103271,61.562027 438.151978,62.008106 440.509094,61.870117 
M598.216675,49.131874 
	C587.813232,44.622440 577.492188,44.002426 567.463928,50.098064 
	C560.920898,54.075268 557.653381,60.098785 558.306335,67.692276 
	C558.940735,75.069839 563.009338,80.378052 570.040894,82.959900 
	C575.711365,85.041977 581.613037,86.511299 587.224854,88.726898 
	C589.131226,89.479568 590.466064,91.679970 592.062134,93.218826 
	C590.127808,94.487312 588.336914,96.473404 586.233032,96.894089 
	C578.983765,98.343658 574.194275,93.573906 569.704590,89.557358 
	C565.445374,93.811096 561.283386,97.967751 557.107727,102.138008 
	C567.435059,113.705978 584.963806,117.392975 598.989807,110.723785 
	C607.714783,106.575203 612.262146,96.116684 608.981262,87.176376 
	C606.813660,81.269882 601.878601,78.130013 596.296448,76.093338 
	C591.078613,74.189575 585.594849,72.981079 580.467957,70.881042 
	C578.832031,70.210953 577.158569,67.720436 577.043518,65.962082 
	C576.973877,64.896187 579.732178,63.356331 581.465210,62.569874 
	C582.506531,62.097324 584.199280,62.296612 585.288635,62.829273 
	C589.444824,64.861580 593.474854,67.151810 596.575562,68.820274 
	C600.625916,65.080719 604.741821,61.280685 609.321594,57.052311 
	C605.788025,54.512634 602.323730,52.022816 598.216675,49.131874 
M306.732849,87.050133 
	C303.748322,79.850571 297.233612,77.341141 290.621643,75.048546 
	C286.306519,73.552368 281.778534,72.591599 277.616882,70.771393 
	C276.024048,70.074722 274.047272,67.431374 274.311462,66.078598 
	C274.596680,64.618187 277.196808,62.862911 278.972015,62.626965 
	C281.261414,62.322666 283.967896,62.934292 286.072540,63.991760 
	C289.095947,65.510864 291.738525,67.787949 294.166595,69.478859 
	C298.343567,65.376640 302.462311,61.331604 306.580231,57.287388 
	C294.869232,45.191948 280.494141,42.165592 267.206787,48.985691 
	C259.941040,52.715042 255.916611,58.494595 256.022156,66.753075 
	C256.125305,74.824173 260.621857,80.149033 267.727051,83.044113 
	C273.615234,85.443298 279.887329,86.885468 285.871063,89.074837 
	C287.463196,89.657379 288.620453,91.428383 289.977386,92.653748 
	C288.498779,94.057297 287.100739,95.564835 285.497192,96.807121 
	C284.947235,97.233192 283.875854,96.946815 283.055023,97.068871 
	C275.869629,98.137344 271.604797,93.060867 266.758026,89.019875 
	C262.517761,93.326164 258.453888,97.453346 254.246796,101.725983 
	C263.140350,110.735962 273.652344,115.427841 286.449402,113.760078 
	C301.518616,111.796219 310.040833,100.864594 306.732849,87.050133 
M639.313477,26.991051 
	C633.721130,26.991051 628.128845,26.991051 622.099548,26.991051 
	C622.099548,33.738041 622.099548,39.822979 622.099548,45.915524 
	C619.570190,46.114731 617.487061,46.278793 615.424316,46.441250 
	C615.424316,52.052994 615.424316,57.285213 615.424316,62.631863 
	C617.827637,62.800694 619.906433,62.946724 622.936523,63.159584 
	C622.936523,73.578407 622.377380,83.742424 623.053528,93.823586 
	C624.439331,114.484314 643.450989,116.812767 655.487488,111.888390 
	C656.504272,111.472427 657.837036,110.230698 657.884705,109.313454 
	C658.127991,104.631607 657.997131,99.930328 657.997131,94.873978 
	C649.438477,99.496918 642.669922,97.743446 642.182312,90.776947 
	C641.537109,81.559914 642.023499,72.263664 642.023499,62.709045 
	C647.635864,62.709045 652.587402,62.709045 657.620605,62.709045 
	C657.620605,57.036465 657.620605,51.677971 657.620605,46.007149 
	C652.295532,46.007149 647.354248,46.007149 642.008728,46.007149 
	C642.008728,40.733593 642.125305,35.768806 641.929443,30.816385 
	C641.878357,29.523867 640.854370,28.269827 639.313477,26.991051 
z"/>
<path fill="#FD3064" opacity="1.000000" stroke="none" 
	d="
M44.428463,160.000000 
	C39.370346,157.185486 34.680138,154.465118 30.124598,151.535385 
	C22.449982,146.599701 20.826324,140.477554 24.889145,132.290863 
	C25.775227,130.505386 26.833208,128.805939 27.753857,127.036621 
	C28.287096,126.011818 28.969555,124.963318 29.121977,123.861450 
	C29.516207,121.011551 22.048687,109.804321 19.232635,108.909859 
	C3.985081,104.066803 4.974761,105.516464 5.026288,88.822205 
	C5.041199,83.991364 4.990906,79.160072 5.037387,74.329636 
	C5.091969,68.657494 6.855103,66.592018 12.436686,65.580772 
	C13.744197,65.343880 15.081121,65.077187 16.396801,65.112404 
	C20.932571,65.233780 23.358568,62.759174 24.620766,58.725872 
	C24.719841,58.409283 24.766903,58.039211 24.963940,57.795845 
	C32.791706,48.127518 31.911156,36.081612 33.980354,24.842274 
	C34.160717,23.862602 34.332272,22.878277 34.579144,21.914352 
	C37.040112,12.305259 39.374325,10.303950 48.442635,14.112231 
	C60.956795,19.367615 73.258705,21.073971 86.817627,19.363873 
	C97.760803,17.983683 109.203987,18.404377 120.180832,19.864441 
	C151.802383,24.070509 172.757431,44.651039 178.722748,75.983162 
	C178.877823,76.797668 179.033157,77.612122 179.341385,79.229614 
	C181.313599,79.229614 183.422379,79.047012 185.487671,79.269028 
	C189.346420,79.683838 192.214752,81.537598 192.304840,85.779015 
	C192.394043,89.979439 189.736786,92.847061 185.857559,92.456688 
	C179.178864,91.784569 177.888275,95.451340 177.154327,100.692566 
	C176.722412,103.776970 176.139954,107.196053 174.464142,109.681892 
	C169.955078,116.370575 172.891037,121.761246 176.435623,127.333664 
	C177.855804,129.566299 179.231979,131.859406 180.320267,134.264328 
	C183.092911,140.391296 181.051971,147.382797 175.369263,150.824905 
	C170.425079,153.819672 165.292511,156.503418 160.121582,159.662308 
	C157.958328,160.000000 155.916672,160.000000 153.341980,159.667450 
	C148.711456,155.449768 144.613953,151.564636 140.516449,147.679489 
	C141.059784,146.884659 140.873550,146.785477 140.739975,146.833313 
	C115.474785,155.883194 89.852150,154.681107 64.063118,149.641388 
	C62.937374,149.421387 61.322472,150.039963 60.385674,150.813324 
	C56.823467,153.754028 53.446316,156.918915 50.000000,160.000000 
	C48.285641,160.000000 46.571285,160.000000 44.428463,160.000000 
M118.941238,84.012482 
	C118.878853,84.670502 118.530022,85.498665 118.802673,85.957664 
	C120.123230,88.180756 121.167351,91.248344 123.168343,92.188431 
	C125.029236,93.062683 128.857864,92.451660 130.203964,90.997948 
	C131.706528,89.375252 132.222061,85.836182 131.596512,83.563515 
	C131.099030,81.756149 128.137863,79.321960 126.449905,79.454300 
	C123.943420,79.650826 121.595390,81.868423 118.941238,84.012482 
M99.277489,79.143440 
	C93.927055,79.886238 91.705200,82.167274 92.005806,86.602356 
	C92.275566,90.582352 94.614555,92.709236 98.380699,92.908607 
	C102.454552,93.124245 105.019615,90.795105 105.619759,86.846413 
	C106.252914,82.680481 103.809952,80.389389 99.277489,79.143440 
M78.849388,87.199028 
	C79.060776,83.000305 77.212166,79.548355 73.093559,79.454727 
	C70.571251,79.397377 67.130463,81.450226 65.643707,83.614426 
	C63.689613,86.458916 65.348549,89.676338 68.224968,91.734833 
	C71.798767,94.292374 75.558380,92.909454 78.849388,87.199028 
z"/>
<path fill="#FFFDFD" opacity="1.000000" stroke="none" 
	d="
M50.468658,160.000000 
	C53.446316,156.918915 56.823467,153.754028 60.385674,150.813324 
	C61.322472,150.039963 62.937374,149.421387 64.063118,149.641388 
	C89.852150,154.681107 115.474785,155.883194 140.739975,146.833313 
	C140.873550,146.785477 141.059784,146.884659 140.516449,147.679489 
	C144.613953,151.564636 148.711456,155.449768 152.904480,159.667450 
	C118.979103,160.000000 84.958214,160.000000 50.468658,160.000000 
z"/>
<path fill="#292D37" opacity="1.000000" stroke="none" 
	d="
M766.339844,48.099888 
	C778.415771,43.017632 788.885315,44.790684 798.243774,53.767242 
	C808.436646,46.230656 819.518555,43.185547 832.312317,46.862595 
	C840.926819,49.338497 844.612976,55.477703 845.824585,63.245144 
	C846.918579,70.259270 846.833252,77.480469 846.964417,84.615921 
	C847.135193,93.907928 847.006165,103.205444 847.006165,112.751717 
	C840.282166,112.751717 833.885925,112.751717 827.024902,112.751717 
	C827.024902,99.011108 827.051758,85.402359 827.013000,71.793793 
	C826.995056,65.499519 824.010254,61.436607 818.901855,60.517323 
	C812.243591,59.319118 807.010803,61.851883 804.756775,67.719437 
	C804.017273,69.644531 803.848267,71.881073 803.835144,73.977798 
	C803.755127,86.775719 803.795166,99.574394 803.795166,112.688080 
	C797.035461,112.688080 790.619873,112.688080 783.510315,112.688080 
	C783.510315,108.038330 783.537231,103.278366 783.504639,98.518806 
	C783.442993,89.525597 783.581238,80.522614 783.197327,71.542465 
	C782.839478,63.171162 779.656189,60.055149 772.668152,60.239021 
	C765.105957,60.438000 760.143860,65.123077 760.048157,72.666969 
	C759.891724,84.992416 760.005188,97.321274 760.004883,109.648697 
	C760.004883,110.609833 760.004944,111.570976 760.004944,112.765945 
	C753.251648,112.765945 746.861328,112.765945 740.265381,112.765945 
	C740.265381,90.610550 740.265381,68.694633 740.265381,46.465443 
	C746.814087,46.465443 753.220215,46.465443 759.808472,46.465443 
	C759.912354,48.181282 760.011597,49.820236 760.136169,51.877419 
	C762.182678,50.581860 764.072632,49.385437 766.339844,48.099888 
z"/>
<path fill="#2A2E38" opacity="1.000000" stroke="none" 
	d="
M537.207520,51.757835 
	C551.146057,61.678272 555.310852,82.455589 546.481628,98.351990 
	C540.064514,109.905579 524.028259,119.674431 503.817780,109.657043 
	C503.817780,121.284058 503.817780,132.591782 503.817780,144.206268 
	C496.853790,144.206268 490.600525,144.206268 483.951050,144.206268 
	C483.951050,111.669724 483.951050,79.145500 483.951050,46.147831 
	C489.719330,46.147831 495.351990,45.953205 500.952637,46.290760 
	C502.279083,46.370708 503.497864,48.237114 504.723602,49.246704 
	C515.593567,43.662930 526.432556,44.453701 537.207520,51.757835 
M523.972168,63.320702 
	C516.740417,59.158367 510.821167,60.006107 505.729584,65.933296 
	C498.825378,73.970673 499.773254,88.519226 507.658569,95.539352 
	C513.138916,100.418449 519.888184,100.184959 525.005798,94.939178 
	C533.338379,86.397888 533.106506,73.563171 523.972168,63.320702 
z"/>
<path fill="#2A2E38" opacity="1.000000" stroke="none" 
	d="
M349.535400,105.671600 
	C348.203552,108.296638 347.538208,112.120186 345.906097,112.590767 
	C342.372406,113.609619 338.339142,113.003654 334.522491,112.814445 
	C333.964478,112.786781 333.297485,111.466774 332.977905,110.631149 
	C324.980103,89.720993 317.020660,68.796165 309.074890,47.866180 
	C308.971039,47.592537 309.130798,47.218811 309.209015,46.522308 
	C315.524597,46.522308 321.883820,46.522308 328.600098,46.522308 
	C332.334045,58.241325 336.112427,70.099930 340.341431,83.372726 
	C343.187469,74.495010 345.622528,67.010948 347.978424,59.502045 
	C349.104767,55.912254 349.919128,52.215405 351.222961,48.696037 
	C351.618835,47.627468 353.131897,46.349419 354.214081,46.270126 
	C358.171661,45.980156 362.163330,46.155373 366.381104,46.155373 
	C370.182434,58.260456 373.904572,70.113342 377.626709,81.966225 
	C377.960266,81.958321 378.293854,81.950417 378.627411,81.942520 
	C382.078247,71.218407 385.739349,60.554569 388.841919,49.730637 
	C389.688416,46.777512 390.840240,46.038872 393.556458,46.113571 
	C398.531799,46.250393 403.513580,46.152542 409.994812,46.152542 
	C401.398560,68.883888 393.088715,90.857849 384.765472,112.867233 
	C380.339111,112.867233 376.196106,112.867233 371.730347,112.867233 
	C367.771912,102.600365 363.788422,92.268654 359.245117,80.484840 
	C355.774414,89.586624 352.768982,97.468254 349.535400,105.671600 
z"/>
<path fill="#292D37" opacity="1.000000" stroke="none" 
	d="
M880.005981,116.195122 
	C880.005981,125.794159 880.005981,134.918930 880.005981,144.251526 
	C873.212036,144.251526 866.798218,144.251526 860.211426,144.251526 
	C860.211426,111.558838 860.211426,79.149826 860.211426,46.443443 
	C866.650269,46.443443 872.909180,46.443443 879.650024,46.443443 
	C879.809509,47.627369 879.996216,49.013195 880.235840,50.791943 
	C889.199585,42.585648 899.221985,44.273830 908.738342,48.674900 
	C918.471252,53.176117 924.837708,61.181339 926.954895,71.952744 
	C929.890015,86.884850 926.299316,99.902359 913.455139,108.724686 
	C903.020203,115.892159 891.618958,115.974968 880.006042,109.151321 
	C880.006042,111.571060 880.006042,113.645950 880.005981,116.195122 
M889.203735,61.075054 
	C883.371887,63.152027 880.075989,67.488892 878.416077,73.249916 
	C875.201599,84.406075 881.157959,97.121910 890.389648,98.857147 
	C898.712952,100.421638 906.755127,92.615692 907.707642,81.586060 
	C908.655945,70.603722 901.186584,58.761856 889.203735,61.075054 
z"/>
<path fill="#282C36" opacity="1.000000" stroke="none" 
	d="
M681.558899,49.425613 
	C693.225525,44.737900 704.649902,43.961929 715.957520,49.110527 
	C722.724365,52.191635 726.585938,57.989815 726.777832,65.213013 
	C727.196533,80.974770 726.907288,96.755325 726.907288,112.765976 
	C720.230408,112.765976 713.811401,112.765976 707.292358,112.765976 
	C707.144531,111.575386 707.005859,110.458542 706.828125,109.026970 
	C705.683105,109.629524 704.670532,110.108009 703.710876,110.675896 
	C695.583191,115.485573 681.228027,115.016586 674.368286,109.701088 
	C662.938293,100.844215 664.471313,81.747795 677.700806,75.078735 
	C683.236023,72.288406 689.783691,71.314995 695.987061,70.116394 
	C699.473145,69.442833 703.196106,69.995071 706.982971,69.995071 
	C706.855469,65.297806 704.492615,62.612850 700.566284,62.126781 
	C696.048645,61.567501 691.338928,61.081867 687.299316,64.525520 
	C686.516052,65.193230 684.294067,64.866730 683.121155,64.257225 
	C679.202148,62.220711 675.458069,59.847580 670.842773,57.129810 
	C674.476257,54.508141 677.857239,52.068695 681.558899,49.425613 
M704.302612,84.997459 
	C699.865417,85.349144 695.199646,85.005013 691.090515,86.355156 
	C689.127502,87.000153 687.223022,90.839241 687.170349,93.272232 
	C687.132263,95.032150 690.061035,98.202171 691.890503,98.375114 
	C695.645386,98.730087 699.895874,98.261848 703.308289,96.724838 
	C707.777588,94.711800 708.484558,87.875557 704.302612,84.997459 
z"/>
<path fill="#2A2D38" opacity="1.000000" stroke="none" 
	d="
M440.069427,61.872971 
	C438.151978,62.008106 436.103271,61.562027 435.288635,62.366150 
	C429.822235,67.761894 425.609222,63.273449 421.138367,60.857189 
	C419.411011,59.923637 417.799072,58.776562 416.044373,57.669876 
	C422.741730,49.531582 431.099304,45.826649 441.619812,45.864185 
	C450.646454,45.896389 459.441467,46.170685 465.682434,53.631233 
	C468.105835,56.528187 470.402832,60.580254 470.518280,64.177994 
	C471.034515,80.263840 470.742767,96.375610 470.742767,113.305969 
	C463.813568,111.607132 456.470520,115.571053 449.317383,110.047691 
	C441.909912,114.327301 433.167511,115.358894 423.782166,112.083694 
	C411.147644,107.674599 406.428253,91.043137 415.057495,80.607544 
	C421.234955,73.137016 429.563202,70.595032 438.740662,70.033958 
	C442.708038,69.791405 446.702576,69.993294 450.670288,69.993294 
	C450.948059,64.144951 448.365417,62.148464 440.069427,61.872971 
M449.596405,94.805557 
	C450.231720,91.719856 450.867065,88.634155 451.720703,84.488365 
	C445.371002,85.058594 440.143707,84.893883 435.354248,86.262016 
	C433.365051,86.830246 431.471985,90.527031 431.034149,93.060188 
	C430.423218,96.595070 433.584595,98.914398 436.612946,98.661865 
	C440.838440,98.309502 444.948730,96.575134 449.596405,94.805557 
z"/>
<path fill="#2A2E38" opacity="1.000000" stroke="none" 
	d="
M598.538086,49.332436 
	C602.323730,52.022816 605.788025,54.512634 609.321594,57.052311 
	C604.741821,61.280685 600.625916,65.080719 596.575562,68.820274 
	C593.474854,67.151810 589.444824,64.861580 585.288635,62.829273 
	C584.199280,62.296612 582.506531,62.097324 581.465210,62.569874 
	C579.732178,63.356331 576.973877,64.896187 577.043518,65.962082 
	C577.158569,67.720436 578.832031,70.210953 580.467957,70.881042 
	C585.594849,72.981079 591.078613,74.189575 596.296448,76.093338 
	C601.878601,78.130013 606.813660,81.269882 608.981262,87.176376 
	C612.262146,96.116684 607.714783,106.575203 598.989807,110.723785 
	C584.963806,117.392975 567.435059,113.705978 557.107727,102.138008 
	C561.283386,97.967751 565.445374,93.811096 569.704590,89.557358 
	C574.194275,93.573906 578.983765,98.343658 586.233032,96.894089 
	C588.336914,96.473404 590.127808,94.487312 592.062134,93.218826 
	C590.466064,91.679970 589.131226,89.479568 587.224854,88.726898 
	C581.613037,86.511299 575.711365,85.041977 570.040894,82.959900 
	C563.009338,80.378052 558.940735,75.069839 558.306335,67.692276 
	C557.653381,60.098785 560.920898,54.075268 567.463928,50.098064 
	C577.492188,44.002426 587.813232,44.622440 598.538086,49.332436 
z"/>
<path fill="#2A2E38" opacity="1.000000" stroke="none" 
	d="
M306.828461,87.432289 
	C310.040833,100.864594 301.518616,111.796219 286.449402,113.760078 
	C273.652344,115.427841 263.140350,110.735962 254.246796,101.725983 
	C258.453888,97.453346 262.517761,93.326164 266.758026,89.019875 
	C271.604797,93.060867 275.869629,98.137344 283.055023,97.068871 
	C283.875854,96.946815 284.947235,97.233192 285.497192,96.807121 
	C287.100739,95.564835 288.498779,94.057297 289.977386,92.653740 
	C288.620453,91.428383 287.463196,89.657379 285.871063,89.074837 
	C279.887329,86.885468 273.615234,85.443298 267.727051,83.044113 
	C260.621857,80.149033 256.125305,74.824173 256.022156,66.753075 
	C255.916611,58.494595 259.941040,52.715042 267.206787,48.985691 
	C280.494141,42.165592 294.869232,45.191948 306.580231,57.287388 
	C302.462311,61.331604 298.343567,65.376640 294.166595,69.478859 
	C291.738525,67.787949 289.095947,65.510864 286.072540,63.991760 
	C283.967896,62.934292 281.261414,62.322666 278.972015,62.626965 
	C277.196808,62.862911 274.596680,64.618187 274.311462,66.078598 
	C274.047272,67.431374 276.024048,70.074722 277.616882,70.771393 
	C281.778534,72.591599 286.306519,73.552368 290.621643,75.048546 
	C297.233612,77.341141 303.748322,79.850571 306.828461,87.432289 
z"/>
<path fill="#2A2E38" opacity="1.000000" stroke="none" 
	d="
M639.795349,26.994583 
	C640.854370,28.269827 641.878357,29.523867 641.929443,30.816385 
	C642.125305,35.768806 642.008728,40.733593 642.008728,46.007149 
	C647.354248,46.007149 652.295532,46.007149 657.620605,46.007149 
	C657.620605,51.677971 657.620605,57.036465 657.620605,62.709045 
	C652.587402,62.709045 647.635864,62.709045 642.023499,62.709045 
	C642.023499,72.263664 641.537109,81.559914 642.182312,90.776947 
	C642.669922,97.743446 649.438477,99.496918 657.997131,94.873978 
	C657.997131,99.930328 658.127991,104.631607 657.884705,109.313454 
	C657.837036,110.230698 656.504272,111.472427 655.487488,111.888390 
	C643.450989,116.812767 624.439331,114.484314 623.053528,93.823586 
	C622.377380,83.742424 622.936523,73.578407 622.936523,63.159584 
	C619.906433,62.946724 617.827637,62.800694 615.424316,62.631863 
	C615.424316,57.285213 615.424316,52.052994 615.424316,46.441250 
	C617.487061,46.278793 619.570190,46.114731 622.099548,45.915524 
	C622.099548,39.822979 622.099548,33.738041 622.099548,26.991051 
	C628.128845,26.991051 633.721130,26.991051 639.795349,26.994583 
z"/>
<path fill="#FEF7F9" opacity="1.000000" stroke="none" 
	d="
M119.060577,83.619141 
	C121.595390,81.868423 123.943420,79.650826 126.449905,79.454300 
	C128.137863,79.321960 131.099030,81.756149 131.596512,83.563515 
	C132.222061,85.836182 131.706528,89.375252 130.203964,90.997948 
	C128.857864,92.451660 125.029236,93.062683 123.168343,92.188431 
	C121.167351,91.248344 120.123230,88.180756 118.802673,85.957664 
	C118.530022,85.498665 118.878853,84.670502 119.060577,83.619141 
z"/>
<path fill="#FEF3F6" opacity="1.000000" stroke="none" 
	d="
M99.660446,79.200256 
	C103.809952,80.389389 106.252914,82.680481 105.619759,86.846413 
	C105.019615,90.795105 102.454552,93.124245 98.380699,92.908607 
	C94.614555,92.709236 92.275566,90.582352 92.005806,86.602356 
	C91.705200,82.167274 93.927055,79.886238 99.660446,79.200256 
z"/>
<path fill="#FEF5F8" opacity="1.000000" stroke="none" 
	d="
M78.781731,87.582245 
	C75.558380,92.909454 71.798767,94.292374 68.224968,91.734833 
	C65.348549,89.676338 63.689613,86.458916 65.643707,83.614426 
	C67.130463,81.450226 70.571251,79.397377 73.093559,79.454727 
	C77.212166,79.548355 79.060776,83.000305 78.781731,87.582245 
z"/>
<path fill="#FBFBFC" opacity="1.000000" stroke="none" 
	d="
M524.208740,63.617569 
	C533.106506,73.563171 533.338379,86.397888 525.005798,94.939178 
	C519.888184,100.184959 513.138916,100.418449 507.658569,95.539352 
	C499.773254,88.519226 498.825378,73.970673 505.729584,65.933296 
	C510.821167,60.006107 516.740417,59.158367 524.208740,63.617569 
z"/>
<path fill="#FDFDFD" opacity="1.000000" stroke="none" 
	d="
M889.613159,61.009132 
	C901.186584,58.761856 908.655945,70.603722 907.707642,81.586060 
	C906.755127,92.615692 898.712952,100.421638 890.389648,98.857147 
	C881.157959,97.121910 875.201599,84.406075 878.416077,73.249916 
	C880.075989,67.488892 883.371887,63.152027 889.613159,61.009132 
z"/>
<path fill="#FBFBFB" opacity="1.000000" stroke="none" 
	d="
M704.773071,85.000122 
	C708.484558,87.875557 707.777588,94.711800 703.308289,96.724838 
	C699.895874,98.261848 695.645386,98.730087 691.890503,98.375114 
	C690.061035,98.202171 687.132263,95.032150 687.170349,93.272232 
	C687.223022,90.839241 689.127502,87.000153 691.090515,86.355156 
	C695.199646,85.005013 699.865417,85.349144 704.773071,85.000122 
z"/>
<path fill="#F8F9F9" opacity="1.000000" stroke="none" 
	d="
M449.352356,95.118858 
	C444.948730,96.575134 440.838440,98.309502 436.612946,98.661865 
	C433.584595,98.914398 430.423218,96.595070 431.034149,93.060188 
	C431.471985,90.527031 433.365051,86.830246 435.354248,86.262016 
	C440.143707,84.893883 445.371002,85.058594 451.720703,84.488365 
	C450.867065,88.634155 450.231720,91.719856 449.352356,95.118858 
z"/>
</svg>