<?xml version="1.0" encoding="UTF-8"?>
<!DOCTYPE svg PUBLIC "-//W3C//DTD SVG 1.1//EN" "http://www.w3.org/Graphics/SVG/1.1/DTD/svg11.dtd">
<svg xmlns="http://www.w3.org/2000/svg" version="1.1" width="212px" height="205px" style="shape-rendering:geometricPrecision; text-rendering:geometricPrecision; image-rendering:optimizeQuality; fill-rule:evenodd; clip-rule:evenodd" xmlns:xlink="http://www.w3.org/1999/xlink">
<g><path style="opacity:0.294" fill="#fab6cb" d="M 46.5,28.5 C 50.3966,27.385 54.0633,28.0517 57.5,30.5C 53.8641,29.6745 50.1974,29.0078 46.5,28.5 Z"/></g>
<g><path style="opacity:1" fill="#fd2f63" d="M 67.5,35.5 C 71.3922,37.5341 75.3922,37.8674 79.5,36.5C 95.8367,36.3334 112.17,36.5001 128.5,37C 131.602,37.861 133.435,39.361 134,41.5C 136.792,40.7844 139.626,40.4511 142.5,40.5C 148.128,42.3178 153.462,44.6512 158.5,47.5C 160.193,50.1897 162.527,52.1897 165.5,53.5C 166.483,56.6691 168.483,59.0024 171.5,60.5C 171.5,61.1667 171.5,61.8333 171.5,62.5C 171.151,65.9902 172.651,68.3235 176,69.5C 177.75,72.2464 178.75,75.2464 179,78.5C 179.377,79.9423 180.21,80.9423 181.5,81.5C 181.932,82.7095 182.599,83.7095 183.5,84.5C 183.294,87.4951 183.96,90.1617 185.5,92.5C 185.5,92.8333 185.5,93.1667 185.5,93.5C 187.988,95.3878 190.988,96.0545 194.5,95.5C 194.833,95.5 195.167,95.5 195.5,95.5C 196.492,98.7786 196.659,102.112 196,105.5C 192.534,106.941 189.034,107.941 185.5,108.5C 185.768,110.099 185.434,111.432 184.5,112.5C 183.232,114.905 182.565,117.572 182.5,120.5C 180.528,123.084 179.528,126.084 179.5,129.5C 178.007,130.312 177.34,131.645 177.5,133.5C 177.286,135.942 178.286,137.608 180.5,138.5C 181.338,138.842 181.672,139.508 181.5,140.5C 181.285,142.179 181.952,143.179 183.5,143.5C 185.099,148.707 186.099,154.04 186.5,159.5C 184.952,159.821 184.285,160.821 184.5,162.5C 183.127,162.343 181.793,162.51 180.5,163C 181.252,163.671 181.586,164.504 181.5,165.5C 178.845,166.497 176.845,168.164 175.5,170.5C 175.167,170.5 174.833,170.5 174.5,170.5C 171.551,170.931 168.884,172.098 166.5,174C 164.527,174.495 162.527,174.662 160.5,174.5C 156.158,172.486 153.158,169.152 151.5,164.5C 150.583,163.873 149.583,163.539 148.5,163.5C 148.5,163.167 148.5,162.833 148.5,162.5C 148.083,161.876 147.416,161.543 146.5,161.5C 143.279,162.907 139.945,163.907 136.5,164.5C 116.888,166.251 97.2215,166.918 77.5,166.5C 75.901,166.768 74.5676,166.434 73.5,165.5C 71.2949,163.084 69.2949,163.084 67.5,165.5C 65.5544,166.035 64.5544,167.368 64.5,169.5C 63.2921,170.234 61.9587,170.567 60.5,170.5C 60.5,171.5 60.5,172.5 60.5,173.5C 56.1667,173.5 51.8333,173.5 47.5,173.5C 44.9842,170.209 41.6509,168.209 37.5,167.5C 36.0892,165.086 34.0892,163.419 31.5,162.5C 31.7709,160.62 31.1042,159.287 29.5,158.5C 29.5,157.5 29.5,156.5 29.5,155.5C 31.8015,150.572 33.8015,145.572 35.5,140.5C 35.5,139.5 35.5,138.5 35.5,137.5C 35.2964,135.315 34.6298,133.315 33.5,131.5C 32.713,123.241 28.0464,119.407 19.5,120C 18.4911,117.828 16.8244,116.662 14.5,116.5C 14.5,106.5 14.5,96.5 14.5,86.5C 15.8221,86.33 16.9887,86.6634 18,87.5C 19.8475,84.4965 22.3475,83.8298 25.5,85.5C 29.5049,84.5271 32.5049,82.1938 34.5,78.5C 34.1667,77.8333 33.8333,77.1667 33.5,76.5C 34.2951,73.8556 34.9618,71.1889 35.5,68.5C 36.6298,66.6854 37.2964,64.6854 37.5,62.5C 38.0574,56.4728 38.7241,50.4728 39.5,44.5C 41.0395,42.1617 41.7062,39.4951 41.5,36.5C 42.4959,36.5858 43.3292,36.2524 44,35.5C 44.4983,31.9998 46.4983,30.3332 50,30.5C 56.1457,31.2257 61.9791,32.8924 67.5,35.5 Z M 81.5,95.5 C 84.0762,97.8875 85.0762,100.888 84.5,104.5C 82.1125,107.076 79.1125,108.076 75.5,107.5C 74.8333,106.167 73.8333,105.167 72.5,104.5C 72.298,102.05 72.6314,99.717 73.5,97.5C 75.8201,95.7739 78.4867,95.1072 81.5,95.5 Z M 138.5,100.5 C 138.312,103.206 137.312,105.539 135.5,107.5C 128.987,108.596 125.654,105.929 125.5,99.5C 126.401,98.7095 127.068,97.7095 127.5,96.5C 132.625,94.2132 136.292,95.5465 138.5,100.5 Z M 99.5,98.5 C 103.29,94.5673 107.124,94.5673 111,98.5C 111.964,106.034 108.798,108.701 101.5,106.5C 99.7711,104.149 99.1044,101.482 99.5,98.5 Z"/></g>
<g><path style="opacity:1" fill="#e35c7c" d="M 46.5,28.5 C 50.1974,29.0078 53.8641,29.6745 57.5,30.5C 61.0118,30.9236 64.3452,31.9236 67.5,33.5C 67.5,34.1667 67.5,34.8333 67.5,35.5C 61.9791,32.8924 56.1457,31.2257 50,30.5C 46.4983,30.3332 44.4983,31.9998 44,35.5C 43.3292,36.2524 42.4959,36.5858 41.5,36.5C 41.1758,32.4635 42.8424,29.7968 46.5,28.5 Z"/></g>
<g><path style="opacity:0.635" fill="#f4b0c1" d="M 67.5,33.5 C 71.1544,36.3648 75.1544,37.0315 79.5,35.5C 79.5,35.8333 79.5,36.1667 79.5,36.5C 75.3922,37.8674 71.3922,37.5341 67.5,35.5C 67.5,34.8333 67.5,34.1667 67.5,33.5 Z"/></g>
<g><path style="opacity:0.557" fill="#ea93a4" d="M 130.5,35.5 C 133.067,35.7215 135.401,36.3882 137.5,37.5C 135.473,37.6621 133.473,37.4955 131.5,37C 130.944,36.6174 130.611,36.1174 130.5,35.5 Z"/></g>
<g><path style="opacity:1" fill="#e95a78" d="M 130.5,35.5 C 130.611,36.1174 130.944,36.6174 131.5,37C 133.473,37.4955 135.473,37.6621 137.5,37.5C 138.791,37.2627 139.791,37.596 140.5,38.5C 141.167,39.1667 141.833,39.8333 142.5,40.5C 139.626,40.4511 136.792,40.7844 134,41.5C 133.435,39.361 131.602,37.861 128.5,37C 112.17,36.5001 95.8367,36.3334 79.5,36.5C 79.5,36.1667 79.5,35.8333 79.5,35.5C 96.519,34.1955 113.519,34.1955 130.5,35.5 Z"/></g>
<g><path style="opacity:0.698" fill="#f2a6ba" d="M 140.5,38.5 C 147.365,39.9326 153.365,42.9326 158.5,47.5C 153.462,44.6512 148.128,42.3178 142.5,40.5C 141.833,39.8333 141.167,39.1667 140.5,38.5 Z"/></g>
<g><path style="opacity:0.392" fill="#fbaec5" d="M 41.5,36.5 C 41.7062,39.4951 41.0395,42.1617 39.5,44.5C 39.5651,41.5718 40.2318,38.9052 41.5,36.5 Z"/></g>
<g><path style="opacity:0.702" fill="#f6aabf" d="M 158.5,47.5 C 161.447,48.7805 163.781,50.7805 165.5,53.5C 162.527,52.1897 160.193,50.1897 158.5,47.5 Z"/></g>
<g><path style="opacity:0.667" fill="#eb9baf" d="M 165.5,53.5 C 168.243,55.2393 170.243,57.5726 171.5,60.5C 168.483,59.0024 166.483,56.6691 165.5,53.5 Z"/></g>
<g><path style="opacity:0.675" fill="#faa3ba" d="M 171.5,60.5 C 173.262,61.2623 174.262,62.5956 174.5,64.5C 173.5,63.8333 172.5,63.1667 171.5,62.5C 171.5,61.8333 171.5,61.1667 171.5,60.5 Z"/></g>
<g><path style="opacity:1" fill="#e25071" d="M 171.5,62.5 C 172.5,63.1667 173.5,63.8333 174.5,64.5C 174.427,66.0269 175.094,67.0269 176.5,67.5C 178.008,69.1815 179.008,71.1815 179.5,73.5C 179.229,75.3797 179.896,76.713 181.5,77.5C 181.5,77.8333 181.5,78.1667 181.5,78.5C 181.5,79.5 181.5,80.5 181.5,81.5C 180.21,80.9423 179.377,79.9423 179,78.5C 178.75,75.2464 177.75,72.2464 176,69.5C 172.651,68.3235 171.151,65.9902 171.5,62.5 Z"/></g>
<g><path style="opacity:0.6" fill="#f4abb9" d="M 37.5,62.5 C 37.2964,64.6854 36.6298,66.6854 35.5,68.5C 34.1667,69.8333 32.8333,71.1667 31.5,72.5C 33.0002,68.827 35.0002,65.4937 37.5,62.5 Z"/></g>
<g><path style="opacity:0.337" fill="#f6b9c3" d="M 174.5,64.5 C 175.906,64.9731 176.573,65.9731 176.5,67.5C 175.094,67.0269 174.427,66.0269 174.5,64.5 Z"/></g>
<g><path style="opacity:0.171" fill="#f6b7cd" d="M 179.5,73.5 C 180.674,74.5137 181.34,75.847 181.5,77.5C 179.896,76.713 179.229,75.3797 179.5,73.5 Z"/></g>
<g><path style="opacity:0.957" fill="#eb83a1" d="M 31.5,73.5 C 31.9689,76.3933 30.9689,78.3933 28.5,79.5C 28.9925,77.1815 29.9925,75.1815 31.5,73.5 Z"/></g>
<g><path style="opacity:0.706" fill="#e792a6" d="M 181.5,78.5 C 183.074,80.1016 183.741,82.1016 183.5,84.5C 182.599,83.7095 181.932,82.7095 181.5,81.5C 181.5,80.5 181.5,79.5 181.5,78.5 Z"/></g>
<g><path style="opacity:0.376" fill="#f8b3c7" d="M 183.5,84.5 C 184.768,86.9052 185.435,89.5718 185.5,92.5C 183.96,90.1617 183.294,87.4951 183.5,84.5 Z"/></g>
<g><path style="opacity:0.662" fill="#ee85a0" d="M 16.5,81.5 C 15.5423,82.9616 14.3756,84.2949 13,85.5C 12.3333,95.8333 12.3333,106.167 13,116.5C 13.9973,118.323 15.1639,119.99 16.5,121.5C 14.2475,121.084 12.7475,119.751 12,117.5C 11.3333,106.5 11.3333,95.5 12,84.5C 13.129,82.8588 14.629,81.8588 16.5,81.5 Z"/></g>
<g><path style="opacity:1" fill="#e94b71" d="M 85.5,96.5 C 84.1667,96.1667 82.8333,95.8333 81.5,95.5C 78.4867,95.1072 75.8201,95.7739 73.5,97.5C 72.2749,98.1522 71.6083,99.3189 71.5,101C 71.5143,102.385 71.8476,103.551 72.5,104.5C 73.8333,105.167 74.8333,106.167 75.5,107.5C 76.1667,108.167 76.8333,108.833 77.5,109.5C 76.1667,109.5 74.8333,109.5 73.5,109.5C 73.5,108.5 73.5,107.5 73.5,106.5C 72.5,106.5 71.5,106.5 70.5,106.5C 70.5,102.5 70.5,98.5 70.5,94.5C 73.2335,93.279 76.0669,92.279 79,91.5C 81.9839,92.169 84.1506,93.8357 85.5,96.5 Z"/></g>
<g><path style="opacity:0.318" fill="#f7bdcc" d="M 185.5,93.5 C 188.61,94.0885 191.61,94.7552 194.5,95.5C 190.988,96.0545 187.988,95.3878 185.5,93.5 Z"/></g>
<g><path style="opacity:1" fill="#f1436d" d="M 35.5,68.5 C 34.9618,71.1889 34.2951,73.8556 33.5,76.5C 33.8333,77.1667 34.1667,77.8333 34.5,78.5C 32.5049,82.1938 29.5049,84.5271 25.5,85.5C 22.3475,83.8298 19.8475,84.4965 18,87.5C 16.9887,86.6634 15.8221,86.33 14.5,86.5C 14.5,96.5 14.5,106.5 14.5,116.5C 16.8244,116.662 18.4911,117.828 19.5,120C 28.0464,119.407 32.713,123.241 33.5,131.5C 32.8333,131.167 32.1667,130.833 31.5,130.5C 31.5,130.167 31.5,129.833 31.5,129.5C 31.4745,125.108 29.1412,123.108 24.5,123.5C 21.5718,123.435 18.9052,122.768 16.5,121.5C 15.1639,119.99 13.9973,118.323 13,116.5C 12.3333,106.167 12.3333,95.8333 13,85.5C 14.3756,84.2949 15.5423,82.9616 16.5,81.5C 20.4185,80.5584 24.4185,79.8918 28.5,79.5C 30.9689,78.3933 31.9689,76.3933 31.5,73.5C 31.5,73.1667 31.5,72.8333 31.5,72.5C 32.8333,71.1667 34.1667,69.8333 35.5,68.5 Z"/></g>
<g><path style="opacity:1" fill="#ea8298" d="M 81.5,95.5 C 82.8333,95.8333 84.1667,96.1667 85.5,96.5C 85.8064,99.3854 85.4731,102.052 84.5,104.5C 85.0762,100.888 84.0762,97.8875 81.5,95.5 Z"/></g>
<g><path style="opacity:1" fill="#ea6c87" d="M 99.5,98.5 C 99.5,96.8333 99.5,95.1667 99.5,93.5C 103.582,93.3436 107.582,93.8436 111.5,95C 116.215,104.257 113.548,108.924 103.5,109C 97.4157,107.061 96.0824,103.561 99.5,98.5 Z M 99.5,98.5 C 99.1044,101.482 99.7711,104.149 101.5,106.5C 108.798,108.701 111.964,106.034 111,98.5C 107.124,94.5673 103.29,94.5673 99.5,98.5 Z"/></g>
<g><path style="opacity:0.627" fill="#ef93ae" d="M 127.5,96.5 C 127.068,97.7095 126.401,98.7095 125.5,99.5C 125.285,97.8212 125.952,96.8212 127.5,96.5 Z"/></g>
<g><path style="opacity:0.118" fill="#fbbfcd" d="M 73.5,97.5 C 72.6314,99.717 72.298,102.05 72.5,104.5C 71.8476,103.551 71.5143,102.385 71.5,101C 71.6083,99.3189 72.2749,98.1522 73.5,97.5 Z"/></g>
<g><path style="opacity:1" fill="#ea8ba0" d="M 195.5,95.5 C 200.855,100.006 200.522,104.173 194.5,108C 191.518,108.498 188.518,108.665 185.5,108.5C 189.034,107.941 192.534,106.941 196,105.5C 196.659,102.112 196.492,98.7786 195.5,95.5 Z"/></g>
<g><path style="opacity:0.659" fill="#f499b0" d="M 138.5,100.5 C 139.598,101.601 139.765,102.934 139,104.5C 138.578,106.426 137.411,107.426 135.5,107.5C 137.312,105.539 138.312,103.206 138.5,100.5 Z"/></g>
<g><path style="opacity:1" fill="#ea7a93" d="M 84.5,104.5 C 83.5702,108.093 81.2368,109.759 77.5,109.5C 76.8333,108.833 76.1667,108.167 75.5,107.5C 79.1125,108.076 82.1125,107.076 84.5,104.5 Z"/></g>
<g><path style="opacity:0.612" fill="#f7afc1" d="M 184.5,112.5 C 184.706,115.495 184.04,118.162 182.5,120.5C 182.565,117.572 183.232,114.905 184.5,112.5 Z"/></g>
<g><path style="opacity:0.62" fill="#f2abbe" d="M 182.5,120.5 C 182.072,123.785 181.072,126.785 179.5,129.5C 179.528,126.084 180.528,123.084 182.5,120.5 Z"/></g>
<g><path style="opacity:0.718" fill="#ef8ba3" d="M 24.5,123.5 C 29.1412,123.108 31.4745,125.108 31.5,129.5C 29.9028,126.656 27.5695,124.656 24.5,123.5 Z"/></g>
<g><path style="opacity:0.6" fill="#eca1b6" d="M 31.5,130.5 C 32.1667,130.833 32.8333,131.167 33.5,131.5C 34.6298,133.315 35.2964,135.315 35.5,137.5C 33.412,135.664 32.0787,133.331 31.5,130.5 Z"/></g>
<g><path style="opacity:0.612" fill="#f4a5ba" d="M 179.5,129.5 C 179.179,130.817 178.846,132.151 178.5,133.5C 179.187,135.177 179.854,136.844 180.5,138.5C 178.286,137.608 177.286,135.942 177.5,133.5C 177.34,131.645 178.007,130.312 179.5,129.5 Z"/></g>
<g><path style="opacity:0.569" fill="#e9a2b7" d="M 181.5,140.5 C 182.401,141.29 183.068,142.29 183.5,143.5C 181.952,143.179 181.285,142.179 181.5,140.5 Z"/></g>
<g><path style="opacity:0.957" fill="#ec94ab" d="M 35.5,140.5 C 33.8015,145.572 31.8015,150.572 29.5,155.5C 29.4428,149.909 31.4428,144.909 35.5,140.5 Z"/></g>
<g><path style="opacity:1" fill="#ea7890" d="M 183.5,143.5 C 187.813,148.116 189.147,153.449 187.5,159.5C 187.167,159.5 186.833,159.5 186.5,159.5C 186.099,154.04 185.099,148.707 183.5,143.5 Z"/></g>
<g><path style="opacity:0.596" fill="#e7acbe" d="M 29.5,158.5 C 31.1042,159.287 31.7709,160.62 31.5,162.5C 30.3263,161.486 29.6596,160.153 29.5,158.5 Z"/></g>
<g><path style="opacity:0.322" fill="#f9bed0" d="M 186.5,159.5 C 186.833,159.5 187.167,159.5 187.5,159.5C 187.34,161.153 186.674,162.486 185.5,163.5C 185.433,162.041 185.766,160.708 186.5,159.5 Z"/></g>
<g><path style="opacity:0.71" fill="#f69eb5" d="M 31.5,162.5 C 34.0892,163.419 36.0892,165.086 37.5,167.5C 34.9108,166.581 32.9108,164.914 31.5,162.5 Z"/></g>
<g><path style="opacity:1" fill="#e75d7c" d="M 186.5,159.5 C 185.766,160.708 185.433,162.041 185.5,163.5C 185.167,164.5 184.5,165.167 183.5,165.5C 182.833,165.5 182.167,165.5 181.5,165.5C 181.586,164.504 181.252,163.671 180.5,163C 181.793,162.51 183.127,162.343 184.5,162.5C 184.285,160.821 184.952,159.821 186.5,159.5 Z"/></g>
<g><path style="opacity:0.702" fill="#e47e99" d="M 73.5,165.5 C 71.2967,165.065 69.2967,165.065 67.5,165.5C 69.2949,163.084 71.2949,163.084 73.5,165.5 Z"/></g>
<g><path style="opacity:1" fill="#eb7893" d="M 148.5,163.5 C 149.583,163.539 150.583,163.873 151.5,164.5C 153.158,169.152 156.158,172.486 160.5,174.5C 158.173,174.753 156.173,174.086 154.5,172.5C 152.242,169.643 150.242,166.643 148.5,163.5 Z"/></g>
<g><path style="opacity:1" fill="#e15b7a" d="M 136.5,164.5 C 134.5,165.5 132.5,166.5 130.5,167.5C 114.865,168.62 99.1985,168.787 83.5,168C 81.2922,167.809 79.2922,167.309 77.5,166.5C 97.2215,166.918 116.888,166.251 136.5,164.5 Z"/></g>
<g><path style="opacity:0.2" fill="#f5afc3" d="M 148.5,162.5 C 142.62,164.571 136.62,166.237 130.5,167.5C 132.5,166.5 134.5,165.5 136.5,164.5C 139.945,163.907 143.279,162.907 146.5,161.5C 147.416,161.543 148.083,161.876 148.5,162.5 Z"/></g>
<g><path style="opacity:1" fill="#ea8aa0" d="M 37.5,167.5 C 41.6509,168.209 44.9842,170.209 47.5,173.5C 44.0265,171.682 40.6931,169.682 37.5,167.5 Z"/></g>
<g><path style="opacity:0.384" fill="#f4a6bb" d="M 67.5,165.5 C 66.9744,167.23 65.9744,168.564 64.5,169.5C 64.5544,167.368 65.5544,166.035 67.5,165.5 Z"/></g>
<g><path style="opacity:0.122" fill="#f5a8bb" d="M 181.5,165.5 C 182.167,165.5 182.833,165.5 183.5,165.5C 180.869,167.153 178.203,168.819 175.5,170.5C 176.845,168.164 178.845,166.497 181.5,165.5 Z"/></g>
<g><path style="opacity:1" fill="#ea95a6" d="M 64.5,169.5 C 64.106,171.71 62.7727,173.043 60.5,173.5C 60.5,172.5 60.5,171.5 60.5,170.5C 61.9587,170.567 63.2921,170.234 64.5,169.5 Z"/></g>
<g><path style="opacity:0.62" fill="#f09db1" d="M 174.5,170.5 C 170.559,174.825 165.893,176.159 160.5,174.5C 162.527,174.662 164.527,174.495 166.5,174C 168.884,172.098 171.551,170.931 174.5,170.5 Z"/></g>
<g><path style="opacity:0.929" fill="#e293a5" d="M 47.5,173.5 C 51.8333,173.5 56.1667,173.5 60.5,173.5C 56.1855,176.061 51.8521,176.061 47.5,173.5 Z"/></g>
</svg>
